<svg width="343" height="40" viewBox="0 0 343 40" fill="none" xmlns="http://www.w3.org/2000/svg">
<g id="Feed Compose Option Row / CANDIDATE">
<g id="Leading Icon">
<g id="Vector">
<path d="M2.06251 20.3484C1.97916 20.1238 1.97916 19.8769 2.06251 19.6524C2.87421 17.6842 4.25202 16.0014 6.02128 14.8173C7.79053 13.6331 9.87155 13.001 12.0005 13.001C14.1295 13.001 16.2105 13.6331 17.9797 14.8173C19.749 16.0014 21.1268 17.6842 21.9385 19.6524C22.0218 19.8769 22.0218 20.1238 21.9385 20.3484C21.1268 22.3165 19.749 23.9993 17.9797 25.1835C16.2105 26.3676 14.1295 26.9997 12.0005 26.9997C9.87155 26.9997 7.79053 26.3676 6.02128 25.1835C4.25202 23.9993 2.87421 22.3165 2.06251 20.3484Z" stroke="#1A1A1A" stroke-width="1.33" stroke-linecap="round" stroke-linejoin="round"/>
<path d="M12.0005 23.0002C13.6573 23.0002 15.0005 21.6571 15.0005 20.0002C15.0005 18.3434 13.6573 17.0002 12.0005 17.0002C10.3436 17.0002 9.00049 18.3434 9.00049 20.0002C9.00049 21.6571 10.3436 23.0002 12.0005 23.0002Z" stroke="#1A1A1A" stroke-width="1.33" stroke-linecap="round" stroke-linejoin="round"/>
</g>
</g>
<path id="Label" d="M47.792 15.872H40.96V14.5H49.43V15.284C49.43 16.4413 49.2947 17.706 49.024 19.078L47.428 18.868C47.6333 17.9907 47.7547 16.992 47.792 15.872ZM51.012 19.792V21.178H39.476V19.792H43.844V17.566H45.51V19.792H51.012ZM49.486 24.622C49.486 25.1353 49.318 25.588 48.982 25.98C48.6553 26.372 48.1747 26.6753 47.54 26.89C46.9053 27.114 46.14 27.226 45.244 27.226C44.348 27.226 43.5827 27.114 42.948 26.89C42.3133 26.6753 41.828 26.372 41.492 25.98C41.1653 25.588 41.002 25.1353 41.002 24.622C41.002 24.1087 41.1653 23.6607 41.492 23.278C41.8187 22.886 42.2993 22.5827 42.934 22.368C43.578 22.144 44.348 22.032 45.244 22.032C46.14 22.032 46.9053 22.144 47.54 22.368C48.184 22.5827 48.6693 22.886 48.996 23.278C49.3227 23.6607 49.486 24.1087 49.486 24.622ZM47.764 24.538C47.764 24.1833 47.554 23.894 47.134 23.67C46.7233 23.4367 46.0933 23.32 45.244 23.32C44.3947 23.32 43.76 23.4367 43.34 23.67C42.92 23.894 42.71 24.1833 42.71 24.538V24.734C42.71 25.0793 42.92 25.364 43.34 25.588C43.7693 25.8213 44.404 25.938 45.244 25.938C46.084 25.938 46.714 25.8213 47.134 25.588C47.554 25.364 47.764 25.0793 47.764 24.734V24.538ZM62.9064 14.136V26.484H61.3104V20.058H60.1624V26.148H58.5804V14.318H60.1624V18.686H61.3104V14.136H62.9064ZM52.5464 15.382H57.4184V17.398C57.4184 18.3967 57.2831 19.2507 57.0124 19.96C56.7511 20.66 56.3264 21.3133 55.7384 21.92C55.1598 22.5173 54.3338 23.1893 53.2604 23.936L52.1544 22.83C53.1251 22.186 53.8624 21.612 54.3664 21.108C54.8798 20.5947 55.2391 20.058 55.4444 19.498C55.6591 18.938 55.7664 18.2473 55.7664 17.426V16.726H52.5464V15.382ZM75.3888 14.136V26.484H73.7928V20.058H72.6448V26.148H71.0488V14.318H72.6448V18.686H73.7928V14.136H75.3888ZM70.1108 21.612L70.3208 22.942C69.0982 23.2313 67.6375 23.376 65.9388 23.376H64.8888V15.382H69.6068V16.782H66.4988V22.004C68.0108 21.9947 69.2148 21.864 70.1108 21.612ZM88.8093 17.104V18.49H86.9333V21.472H85.2673V14.136H86.9333V17.104H88.8093ZM77.8893 21.332L76.6573 20.254C77.7306 19.3487 78.4866 18.5413 78.9253 17.832C79.3639 17.1133 79.5833 16.3247 79.5833 15.466V14.626H81.2493V15.564C81.2493 16.4507 81.0719 17.272 80.7173 18.028L80.7873 18.07L81.1373 17.776C81.2679 17.6547 81.4126 17.594 81.5713 17.594C81.7206 17.594 81.8559 17.6547 81.9773 17.776L84.2453 19.89L83.0693 21.052L80.6893 18.7C80.6333 18.644 80.5679 18.616 80.4933 18.616C80.4373 18.616 80.3813 18.644 80.3253 18.7C80.0733 19.1013 79.7559 19.5027 79.3733 19.904C78.9906 20.3053 78.4959 20.7813 77.8893 21.332ZM87.0173 24.384C87.0173 24.9253 86.8586 25.4013 86.5413 25.812C86.2333 26.232 85.7759 26.5587 85.1693 26.792C84.5719 27.0347 83.8533 27.156 83.0133 27.156C82.1733 27.156 81.4499 27.0347 80.8433 26.792C80.2366 26.5587 79.7746 26.232 79.4573 25.812C79.1399 25.392 78.9813 24.916 78.9813 24.384C78.9813 23.8427 79.1399 23.362 79.4573 22.942C79.7746 22.522 80.2366 22.1953 80.8433 21.962C81.4499 21.7193 82.1733 21.598 83.0133 21.598C83.8533 21.598 84.5719 21.7193 85.1693 21.962C85.7759 22.1953 86.2333 22.522 86.5413 22.942C86.8586 23.362 87.0173 23.8427 87.0173 24.384ZM85.2673 24.272C85.2673 23.8893 85.0806 23.5673 84.7073 23.306C84.3339 23.0447 83.7693 22.914 83.0133 22.914C82.2479 22.914 81.6739 23.0447 81.2913 23.306C80.9179 23.5673 80.7313 23.8893 80.7313 24.272V24.496C80.7313 24.8787 80.9179 25.196 81.2913 25.448C81.6739 25.7093 82.2479 25.84 83.0133 25.84C83.7786 25.84 84.3433 25.7093 84.7073 25.448C85.0806 25.196 85.2673 24.8787 85.2673 24.496V24.272Z" fill="#1A1A1A"/>
<path id="Value" d="M263.954 17.538V14.234H265.018V23.46H263.954V18.434H261.406V17.538H263.954ZM258.354 18.854C258.289 18.854 258.228 18.882 258.172 18.938C257.92 19.33 257.598 19.736 257.206 20.156C256.814 20.5667 256.291 21.0707 255.638 21.668L254.84 20.982C255.624 20.31 256.231 19.7313 256.66 19.246C257.089 18.7513 257.397 18.266 257.584 17.79C257.78 17.3047 257.878 16.7633 257.878 16.166V16.026H255.204V15.144H261.588V16.026H258.942V16.222C258.942 17.0527 258.779 17.7947 258.452 18.448L258.536 18.49L258.746 18.322C258.849 18.2473 258.947 18.21 259.04 18.21C259.152 18.21 259.264 18.2567 259.376 18.35L261.994 20.73L261.21 21.416L258.564 18.938C258.508 18.882 258.438 18.854 258.354 18.854ZM265.27 25.77V26.652H257.934C257.71 26.652 257.537 26.5913 257.416 26.47C257.295 26.3487 257.234 26.1713 257.234 25.938V22.62H258.312V25.77H265.27ZM277.808 14.234V26.386H276.8V14.234H277.808ZM274 14.444H274.98V26.05H274V20.352H272.25V19.484H274V14.444ZM271.676 15.914H268.456V15.046H271.676V15.914ZM270.57 20.408C270.682 20.408 270.79 20.4593 270.892 20.562L273.146 23.068L272.418 23.698L270.15 21.08C270.104 21.0333 270.057 21.01 270.01 21.01C269.954 21.01 269.908 21.038 269.87 21.094C269.656 21.4953 269.371 21.92 269.016 22.368C268.671 22.8067 268.223 23.3153 267.672 23.894L266.958 23.278C267.64 22.5687 268.162 21.9573 268.526 21.444C268.9 20.9213 269.166 20.408 269.324 19.904C269.483 19.4 269.562 18.826 269.562 18.182H267.252V17.328H272.838V18.182H270.542C270.542 19.0593 270.402 19.848 270.122 20.548L270.178 20.59L270.304 20.492C270.388 20.436 270.477 20.408 270.57 20.408ZM288.177 15.522H281.023V14.626H289.213V15.312C289.213 16.5347 289.068 17.7853 288.779 19.064L287.771 18.924C288.032 17.8227 288.168 16.6887 288.177 15.522ZM290.921 20.044V20.968H279.497V20.044H284.187V17.622H285.237V20.044H290.921ZM289.353 24.636C289.353 25.1213 289.194 25.5507 288.877 25.924C288.569 26.3067 288.102 26.6053 287.477 26.82C286.861 27.0347 286.105 27.142 285.209 27.142C284.313 27.142 283.552 27.0347 282.927 26.82C282.311 26.6053 281.844 26.3067 281.527 25.924C281.219 25.5507 281.065 25.1213 281.065 24.636C281.065 24.1507 281.219 23.7213 281.527 23.348C281.844 22.9747 282.311 22.6807 282.927 22.466C283.552 22.2513 284.313 22.144 285.209 22.144C286.105 22.144 286.861 22.2513 287.477 22.466C288.102 22.6807 288.569 22.9747 288.877 23.348C289.194 23.7213 289.353 24.1507 289.353 24.636ZM288.233 24.538C288.233 24.0993 287.981 23.7307 287.477 23.432C286.982 23.1333 286.226 22.984 285.209 22.984C284.201 22.984 283.44 23.1333 282.927 23.432C282.423 23.7307 282.171 24.0993 282.171 24.538V24.748C282.171 25.1773 282.423 25.5413 282.927 25.84C283.44 26.1387 284.201 26.288 285.209 26.288C286.226 26.288 286.982 26.1387 287.477 25.84C287.981 25.5413 288.233 25.1773 288.233 24.748V24.538ZM302.773 14.234V26.386H301.737V19.862H299.861V26.05H298.825V14.444H299.861V18.98H301.737V14.234H302.773ZM292.637 15.48H297.285V17.384C297.285 18.3733 297.155 19.2087 296.893 19.89C296.641 20.5713 296.212 21.2153 295.605 21.822C294.999 22.4193 294.131 23.0913 293.001 23.838L292.315 23.11C293.37 22.438 294.173 21.836 294.723 21.304C295.283 20.7627 295.675 20.198 295.899 19.61C296.123 19.0127 296.235 18.28 296.235 17.412V16.348H292.637V15.48Z" fill="#797979"/>
<g id="Chevron Right">
<path id="Vector_2" d="M328 26L334 20L328 14" stroke="#1A1A1A" stroke-width="1.33" stroke-linecap="round" stroke-linejoin="round"/>
</g>
</g>
</svg>
