<svg width="375" height="309" viewBox="0 0 375 309" fill="none" xmlns="http://www.w3.org/2000/svg">
<g id="Post Action Sheet / Other User / CANDIDATE">
<path d="M0 24C0 10.7452 10.7452 0 24 0H351C364.255 0 375 10.7452 375 24V309H0V24Z" fill="white"/>
<g id="BottomSheet">
<path d="M0 24C0 10.7452 10.7452 0 24 0H351C364.255 0 375 10.7452 375 24V42H0V24Z" fill="white"/>
<g id="BottomSheet_2">
<path d="M0 24C0 10.7452 10.7452 0 24 0H351C364.255 0 375 10.7452 375 24V42H0V24Z" fill="white"/>
<rect id="bar" x="167.5" y="12" width="40" height="6" rx="3" fill="#CBD1D7"/>
</g>
</g>
<g id="HomeBar">
<rect width="375" height="34" transform="translate(0 275)" fill="white"/>
<rect id="Home Indicator" width="135" height="5" rx="2.5" transform="matrix(-1 0 0 1 255 296)" fill="black"/>
</g>
<g id="Frame 1430106609">
<g id="Time Picker Area">
<rect x="14" y="42" width="347" height="156" rx="14" fill="#F1F1F1"/>
<g id="Post Action Sheet Row / &#236;&#139;&#160;&#234;&#179;&#160;&#237;&#149;&#152;&#234;&#184;&#176;">
<g id="Frame 1430106607">
<g id="Frame 1430106608">
<g id="Icons">
<g id="Union">
<path d="M37.6668 65.2596C37.6668 64.7994 38.0399 64.4263 38.5001 64.4263C38.9603 64.4263 39.3334 64.7994 39.3334 65.2596V69.4263C39.3334 69.8865 38.9603 70.2596 38.5001 70.2596C38.0399 70.2596 37.6668 69.8865 37.6668 69.4263V65.2596Z" fill="#F33939"/>
<path d="M39.3334 71.9263C39.3334 72.3865 38.9603 72.7596 38.5001 72.7596C38.0399 72.7596 37.6668 72.3865 37.6668 71.9263C37.6668 71.466 38.0399 71.0929 38.5001 71.0929C38.9603 71.0929 39.3334 71.466 39.3334 71.9263Z" fill="#F33939"/>
<path fill-rule="evenodd" clip-rule="evenodd" d="M37.037 59.6088C37.6687 58.4507 39.3316 58.4507 39.9633 59.6088L47.1557 72.7949C47.7615 73.9056 46.9576 75.2597 45.6926 75.2597H31.3077C30.0426 75.2597 29.2387 73.9056 29.8445 72.7949L37.037 59.6088ZM38.5001 60.4069L45.6926 73.593L31.3077 73.593L38.5001 60.4069Z" fill="#F33939"/>
</g>
</g>
<path id="Label" d="M67.7793 61.1787V70.7295H66.6367V61.1787H67.7793ZM68.1895 72.9414V73.9082H59.3711V69.8506H60.5137V72.9414H68.1895ZM61.6416 63.2148C61.627 65.1924 62.9893 66.9795 64.9229 67.6826L64.3223 68.6055C62.8135 68.0269 61.6416 66.855 61.0703 65.3535C60.4917 66.9502 59.3052 68.2319 57.7891 68.8398L57.1592 67.9463C59.1367 67.1846 60.4697 65.2656 60.4697 63.2148V61.9111H61.6416V63.2148ZM80.4355 62.4824V63.7861C80.4209 65.3828 80.4209 67.1699 79.9521 69.792L78.7803 69.6602C79.2783 67.1699 79.2783 65.3389 79.2783 63.7861V63.4346H71.251V62.4824H80.4355ZM81.8564 71.3887V72.3408H69.9912V71.3887H74.6494V66.7305H75.7773V71.3887H81.8564ZM93.0332 61.1641V66.54H95.2158V67.4922H93.0332V74.1865H91.8906V61.1641H93.0332ZM90.6309 63.2588V64.2109H82.8818V63.2588H86.2363V61.3252H87.3789V63.2588H90.6309ZM86.8223 65.2949C88.668 65.2949 90.001 66.5254 90.0156 68.2832C90.001 70.041 88.668 71.2715 86.8223 71.2715C84.9619 71.2715 83.6143 70.041 83.6289 68.2832C83.6143 66.5254 84.9619 65.2949 86.8223 65.2949ZM86.8223 66.2617C85.6064 66.2617 84.7129 67.1113 84.7275 68.2832C84.7129 69.4697 85.6064 70.3047 86.8223 70.29C88.0234 70.3047 88.9023 69.4697 88.917 68.2832C88.9023 67.1113 88.0234 66.2617 86.8223 66.2617ZM106.686 61.1641V74.1865H105.528V61.1641H106.686ZM102.833 62.585C102.818 66.335 101.075 69.6455 96.71 71.7402L96.0801 70.8027C99.603 69.1328 101.397 66.6353 101.661 63.5225H96.6807V62.585H102.833Z" fill="#F33939"/>
</g>
</g>
</g>
<line id="Line 46" x1="14" y1="93.5" x2="360" y2="93.5" stroke="#E9E9E9"/>
<g id="Post Action Sheet Row / &#237;&#148;&#132;&#235;&#161;&#156;&#237;&#149;&#132; &#236;&#176;&#168;&#235;&#139;&#168;">
<g id="Frame 1430106607_2">
<g id="Frame 1430106608_2">
<g id="Icons_2">
<path id="Union_2" d="M33.6211 113.879C34.0116 113.488 34.6446 113.488 35.0352 113.879L35.6309 114.475L37.126 115.969H37.125L47.7637 126.606C48.154 126.997 48.1539 127.63 47.7637 128.021C47.3732 128.411 46.7401 128.411 46.3496 128.021L45.6777 127.349C44.1555 128.234 42.388 128.744 40.5 128.744C35.6889 128.744 31.6463 125.453 30.5 121C31.0525 118.854 32.2785 116.978 33.9385 115.61L33.6211 115.293C33.2307 114.903 33.2308 114.269 33.6211 113.879ZM35.3613 117.033C34.0789 118.041 33.0983 119.415 32.582 121C33.6683 124.335 36.8052 126.744 40.5 126.744C41.8304 126.744 43.0873 126.43 44.2031 125.874L42.6797 124.351C42.0525 124.76 41.3049 125 40.5 125C38.2909 125 36.5001 123.209 36.5 121C36.5 120.195 36.7386 119.447 37.1475 118.819L35.3613 117.033ZM40.5 113.256C45.3111 113.256 49.3538 116.547 50.5 121C50.1487 122.365 49.5235 123.619 48.6895 124.704L47.2617 123.276C47.7568 122.589 48.15 121.823 48.418 121C47.3317 117.665 44.1948 115.256 40.5 115.256C40.1009 115.256 39.7085 115.285 39.3242 115.34L37.6426 113.658C38.5502 113.397 39.5085 113.256 40.5 113.256ZM38.627 120.298C38.5449 120.516 38.5 120.753 38.5 121C38.5001 122.105 39.3955 123 40.5 123C40.7471 123 40.983 122.954 41.2012 122.872L38.627 120.298Z" fill="black"/>
</g>
<path id="Label_2" d="M72.9512 123.535V124.517H61.0273V123.535H72.9512ZM71.8086 114.482V115.435H69.7432V119.99H71.7793V120.928H62.1113V119.99H64.1475V115.435H62.082V114.482H71.8086ZM65.29 119.99H68.6152V115.435H65.29V119.99ZM85.915 123.608V124.575H73.9912V123.608H79.3525V121.147H75.4854V117.134H83.2783V115.083H75.4561V114.131H84.4062V118.071H76.6279V120.195H84.7139V121.147H80.4805V123.608H85.915ZM97.7217 113.164V119.932H96.5645V113.164H97.7217ZM97.7217 120.562V123.667H90.3682V125.103H98.2197V126.04H89.2402V122.803H96.5791V121.484H89.1963V120.562H97.7217ZM94.5869 114.058V114.98H93.2686V118.306C93.9424 118.269 94.6089 118.203 95.2314 118.13L95.29 118.979C92.6826 119.36 89.6211 119.463 87.3213 119.463L87.1748 118.511L88.8447 118.496V114.98H87.541V114.058H94.5869ZM89.958 118.467C90.6758 118.452 91.4155 118.43 92.1553 118.379V114.98H89.958V118.467ZM108.02 117.412C108.02 119.492 109.382 121.631 111.271 122.539L110.598 123.433C109.162 122.729 108.027 121.309 107.492 119.624C106.921 121.433 105.712 122.949 104.226 123.667L103.566 122.773C105.471 121.88 106.892 119.653 106.906 117.412V116.372H103.918V115.435H106.892V113.413H108.049V115.435H110.979V116.372H108.02V117.412ZM113.762 113.164V118.511H115.944V119.492H113.762V126.187H112.619V113.164H113.762ZM126.828 113.164V117.046H128.806V118.013H126.828V122.598H125.686V113.164H126.828ZM123.063 114.292V115.259H118.405V119.316C121.02 119.316 122.507 119.25 124.25 118.892L124.396 119.844C122.565 120.195 121.013 120.283 118.273 120.283H117.263V114.292H123.063ZM127.429 124.941V125.908H118.684V121.646H119.812V124.941H127.429Z" fill="black"/>
</g>
</g>
</g>
<line id="Line 47" x1="14" y1="145.5" x2="360" y2="145.5" stroke="#E9E9E9"/>
<g id="Post Action Sheet Row / &#236;&#189;&#152;&#237;&#133;&#144;&#236;&#184;&#160; &#234;&#184;&#176;&#235;&#179;&#184; &#236;&#132;&#164;&#236;&#160;&#149;">
<g id="Frame 1430106607_3">
<g id="Frame 1430106608_3">
<g id="Icons_3">
<g id="Union_3">
<path d="M38.4993 163.5C38.0391 163.5 37.666 163.873 37.666 164.333V165.167H30.9993C30.5391 165.167 30.166 165.54 30.166 166C30.166 166.46 30.5391 166.833 30.9993 166.833H37.666V167.667C37.666 168.127 38.0391 168.5 38.4993 168.5C38.9596 168.5 39.3327 168.127 39.3327 167.667V164.333C39.3327 163.873 38.9596 163.5 38.4993 163.5Z" fill="black"/>
<path d="M41.8327 169.333C41.8327 168.873 42.2058 168.5 42.666 168.5C43.1263 168.5 43.4993 168.873 43.4993 169.333V172.667C43.4993 173.127 43.1263 173.5 42.666 173.5C42.2058 173.5 41.8327 173.127 41.8327 172.667V171.833H30.9993C30.5391 171.833 30.166 171.46 30.166 171C30.166 170.54 30.5391 170.167 30.9993 170.167H41.8327V169.333Z" fill="black"/>
<path d="M34.3327 173.5C33.8724 173.5 33.4993 173.873 33.4993 174.333V175.167H30.9993C30.5391 175.167 30.166 175.54 30.166 176C30.166 176.46 30.5391 176.833 30.9993 176.833H33.4993V177.667C33.4993 178.127 33.8724 178.5 34.3327 178.5C34.7929 178.5 35.166 178.127 35.166 177.667V174.333C35.166 173.873 34.7929 173.5 34.3327 173.5Z" fill="black"/>
<path d="M35.9993 176C35.9993 175.54 36.3724 175.167 36.8327 175.167H45.9993C46.4596 175.167 46.8327 175.54 46.8327 176C46.8327 176.46 46.4596 176.833 45.9993 176.833H36.8327C36.3724 176.833 35.9993 176.46 35.9993 176Z" fill="black"/>
<path d="M45.166 170.167C44.7058 170.167 44.3327 170.54 44.3327 171C44.3327 171.46 44.7058 171.833 45.166 171.833H45.9993C46.4596 171.833 46.8327 171.46 46.8327 171C46.8327 170.54 46.4596 170.167 45.9993 170.167H45.166Z" fill="black"/>
<path d="M40.166 166C40.166 165.54 40.5391 165.167 40.9993 165.167H45.9993C46.4596 165.167 46.8327 165.54 46.8327 166C46.8327 166.46 46.4596 166.833 45.9993 166.833H40.9993C40.5391 166.833 40.166 166.46 40.166 166Z" fill="black"/>
</g>
</g>
<path id="Label_3" d="M67.4131 165.809V166.893C67.4131 168.108 67.4131 169.427 67.0615 171.214L65.9189 171.111C66.0801 170.35 66.168 169.668 66.2266 169.046L58.2871 169.427L58.126 168.445L66.2705 168.182C66.2852 167.728 66.2852 167.303 66.2852 166.893V166.746H58.4482V165.809H67.4131ZM68.8926 172.093V173.03H57.042V172.093H61.876V170.174H63.0332V172.093H68.8926ZM67.7207 177.044V177.981H58.5508V174.144H59.708V177.044H67.7207ZM81.0508 165.179V174.935H79.9521V165.179H81.0508ZM78.5166 165.442V174.598H77.4033V169.808H75.6455V168.885H77.4033V165.442H78.5166ZM81.4463 176.941V177.908H72.5547V173.851H73.7266V176.941H81.4463ZM75.5723 166.248V167.2H71.7051V169.002H75.0303V169.91H71.7051V171.814C73.5874 171.807 74.7593 171.756 76.1582 171.463L76.2754 172.4C74.7666 172.708 73.5361 172.767 71.4268 172.767H70.6064V166.248H75.5723ZM94.8789 175.55V176.517H82.9551V175.55H94.8789ZM89.4883 168.211C89.4883 170.364 91.6416 171.99 94.1172 172.43L93.6484 173.367C91.5903 172.95 89.7153 171.822 88.9023 170.115C88.0747 171.822 86.1997 172.95 84.1416 173.367L83.6875 172.43C86.1484 171.99 88.3164 170.364 88.3164 168.211H84.0684V167.273H88.3311V165.486H89.459V167.273H93.7363V168.211H89.4883ZM110.45 165.164V178.187H109.293V165.164H110.45ZM106.598 166.585C106.583 170.335 104.84 173.646 100.475 175.74L99.8447 174.803C103.368 173.133 105.162 170.635 105.426 167.522H100.445V166.585H106.598ZM115.372 165.691V167.347H121.817V165.691H122.96V170.892H119.151V172.283H124.513V173.235H112.647V172.283H118.009V170.892H114.229V165.691H115.372ZM115.372 169.969H121.817V168.255H115.372V169.969ZM123.194 176.941V177.908H114.186V174.275H115.343V176.941H123.194ZM140.172 165.164V171.902H139.015V168.519H136.114V167.566H139.015V165.164H140.172ZM140.172 172.562V175.667H132.892V177.088H140.655V178.011H131.764V174.788H139.029V173.484H131.734V172.562H140.172ZM133.814 166.819C133.8 168.533 135.147 170.086 137.052 170.716L136.437 171.609C134.994 171.097 133.844 170.071 133.272 168.753C132.716 170.24 131.537 171.375 129.991 171.932L129.361 171.009C131.324 170.364 132.672 168.724 132.687 166.819V165.589H133.814V166.819ZM153.136 165.164V172.928H151.979V169.515H149.356V168.562H151.979V165.164H153.136ZM148.814 173.338C151.524 173.338 153.18 174.217 153.18 175.755C153.18 177.293 151.524 178.172 148.814 178.187C146.104 178.172 144.449 177.293 144.449 175.755C144.449 174.217 146.104 173.338 148.814 173.338ZM148.814 174.231C146.822 174.231 145.577 174.803 145.592 175.755C145.577 176.692 146.822 177.264 148.814 177.264C150.807 177.264 152.037 176.692 152.037 175.755C152.037 174.803 150.807 174.231 148.814 174.231ZM146.866 167.552C146.866 169.251 148.17 170.862 150.074 171.521L149.474 172.444C148.009 171.917 146.874 170.826 146.324 169.471C145.753 171.001 144.544 172.225 142.999 172.811L142.398 171.888C144.332 171.185 145.709 169.427 145.709 167.566V167.083H142.765V166.116H149.781V167.083H146.866V167.552Z" fill="black"/>
</g>
</g>
</g>
</g>
<g id="Time Picker Area_2">
<g id="CDS Button / &#234;&#178;&#140;&#236;&#139;&#156;&#235;&#172;&#188; &#234;&#179;&#181;&#236;&#156;&#160;">
<path d="M16 238C16 222.536 28.536 210 44 210H331C346.464 210 359 222.536 359 238C359 253.464 346.464 266 331 266H44C28.536 266 16 253.464 16 238Z" fill="#00CC61"/>
<g id="Lucide Icons / share">
<path id="Vector" d="M132.334 238V248.667C132.334 249.374 132.615 250.053 133.115 250.553C133.615 251.053 134.293 251.334 135.001 251.334H151.001C151.708 251.334 152.386 251.053 152.886 250.553C153.386 250.053 153.667 249.374 153.667 248.667V238M137.667 230L143.001 224.667L148.334 230M143.001 224.667V242" stroke="white" stroke-width="1.33" stroke-linecap="round" stroke-linejoin="round"/>
</g>
<path id="Label_4" d="M179.688 230.032V245.908H177.636V230.032H179.688ZM174.198 230.266H176.214V245.476H174.198V237.718H171.912C171.564 238.582 171.018 239.392 170.274 240.148C169.542 240.892 168.516 241.72 167.196 242.632L165.774 241.246C167.022 240.418 167.97 239.674 168.618 239.014C169.278 238.354 169.74 237.664 170.004 236.944C170.28 236.212 170.418 235.318 170.418 234.262V233.344H166.278V231.634H172.488V234.226C172.488 234.838 172.452 235.414 172.38 235.954H174.198V230.266ZM194.909 230.032V245.908H192.749V230.032H194.909ZM187.619 236.602C187.835 236.602 188.021 236.698 188.177 236.89L191.255 240.832L189.599 242.254L186.467 238.024C186.443 237.964 186.389 237.934 186.305 237.934C186.233 237.934 186.179 237.964 186.143 238.024C185.807 238.684 185.381 239.362 184.865 240.058C184.361 240.742 183.707 241.564 182.903 242.524L181.247 241.138C182.195 240.094 182.945 239.158 183.497 238.33C184.049 237.49 184.457 236.65 184.721 235.81C184.985 234.97 185.117 234.04 185.117 233.02V231.076H187.277V233.002C187.277 234.466 187.037 235.816 186.557 237.052L186.683 237.142L187.061 236.818C187.241 236.674 187.427 236.602 187.619 236.602ZM209.5 235.792H198.952V230.356H209.5V235.792ZM207.376 231.976H201.076V234.154H207.376V231.976ZM205.306 238.564V239.734H209.482V243.928H201.076V245.098H209.914V246.7H200.392C199.48 246.7 199.024 246.244 199.024 245.332V242.452H207.43V241.318H198.934V239.734H203.164V238.564H196.81V236.872H211.642V238.564H205.306ZM226.904 232.264H218.12V230.5H229.01V231.508C229.01 232.996 228.836 234.622 228.488 236.386L226.436 236.116C226.7 234.988 226.856 233.704 226.904 232.264ZM231.044 237.304V239.086H216.212V237.304H221.828V234.442H223.97V237.304H231.044ZM229.082 243.514C229.082 244.174 228.866 244.756 228.434 245.26C228.014 245.764 227.396 246.154 226.58 246.43C225.764 246.718 224.78 246.862 223.628 246.862C222.476 246.862 221.492 246.718 220.676 246.43C219.86 246.154 219.236 245.764 218.804 245.26C218.384 244.756 218.174 244.174 218.174 243.514C218.174 242.854 218.384 242.278 218.804 241.786C219.224 241.282 219.842 240.892 220.658 240.616C221.486 240.328 222.476 240.184 223.628 240.184C224.78 240.184 225.764 240.328 226.58 240.616C227.408 240.892 228.032 241.282 228.452 241.786C228.872 242.278 229.082 242.854 229.082 243.514ZM226.868 243.406C226.868 242.95 226.598 242.578 226.058 242.29C225.53 241.99 224.72 241.84 223.628 241.84C222.536 241.84 221.72 241.99 221.18 242.29C220.64 242.578 220.37 242.95 220.37 243.406V243.658C220.37 244.102 220.64 244.468 221.18 244.756C221.732 245.056 222.548 245.206 223.628 245.206C224.708 245.206 225.518 245.056 226.058 244.756C226.598 244.468 226.868 244.102 226.868 243.658V243.406ZM233.665 234.028C233.665 233.284 233.869 232.624 234.277 232.048C234.685 231.472 235.303 231.022 236.131 230.698C236.971 230.362 238.003 230.194 239.227 230.194C240.451 230.194 241.477 230.362 242.305 230.698C243.145 231.022 243.769 231.472 244.177 232.048C244.585 232.624 244.789 233.284 244.789 234.028C244.789 234.772 244.585 235.438 244.177 236.026C243.769 236.602 243.145 237.058 242.305 237.394C241.477 237.73 240.451 237.898 239.227 237.898C238.003 237.898 236.971 237.73 236.131 237.394C235.303 237.058 234.685 236.602 234.277 236.026C233.869 235.438 233.665 234.772 233.665 234.028ZM235.987 234.208C235.987 234.796 236.257 235.27 236.797 235.63C237.337 235.99 238.147 236.17 239.227 236.17C240.307 236.17 241.117 235.99 241.657 235.63C242.209 235.27 242.485 234.796 242.485 234.208V233.848C242.485 233.26 242.209 232.786 241.657 232.426C241.117 232.054 240.307 231.868 239.227 231.868C238.159 231.868 237.349 232.054 236.797 232.426C236.257 232.786 235.987 233.26 235.987 233.848V234.208ZM246.643 240.94H243.079V246.394H240.955V240.94H237.499V246.394H235.375V240.94H231.811V239.158H246.643V240.94Z" fill="white"/>
</g>
</g>
</g>
</g>
</svg>
