<svg width="375" height="433" viewBox="0 0 375 433" fill="none" xmlns="http://www.w3.org/2000/svg">
<g id="Post Action Sheet / Owner / CANDIDATE">
<path d="M0 24C0 10.7452 10.7452 0 24 0H351C364.255 0 375 10.7452 375 24V433H0V24Z" fill="white"/>
<g id="BottomSheet">
<path d="M0 24C0 10.7452 10.7452 0 24 0H351C364.255 0 375 10.7452 375 24V42H0V24Z" fill="white"/>
<g id="BottomSheet_2">
<path d="M0 24C0 10.7452 10.7452 0 24 0H351C364.255 0 375 10.7452 375 24V42H0V24Z" fill="white"/>
<rect id="bar" x="167.5" y="12" width="40" height="6" rx="3" fill="#CBD1D7"/>
</g>
</g>
<g id="HomeBar">
<rect width="375" height="34" transform="translate(0 399)" fill="white"/>
<rect id="Home Indicator" width="135" height="5" rx="2.5" transform="matrix(-1 0 0 1 255 420)" fill="black"/>
</g>
<g id="Frame 1430106609">
<g id="Time Picker Area">
<rect x="14" y="42" width="347" height="280" rx="14" fill="#F1F1F1"/>
<g id="Post Action Sheet Row / &#234;&#178;&#140;&#236;&#139;&#156;&#235;&#172;&#188; &#236;&#136;&#152;&#236;&#160;&#149;">
<g id="Frame 1430106607">
<g id="Frame 1430106608">
<g id="Icons">
<path id="Union (Stroke)" fill-rule="evenodd" clip-rule="evenodd" d="M41.2191 60.7454L41.8084 60.1561C42.015 59.9495 42.2488 59.7866 42.4982 59.6674C43.4274 59.2235 44.5741 59.3863 45.3439 60.1561C46.1138 60.926 46.2765 62.0726 45.8326 63.0018C45.7137 63.2507 45.5512 63.484 45.3453 63.6903C45.3448 63.6908 45.3444 63.6912 45.3439 63.6917L44.7547 64.2809L41.2191 60.7454ZM40.0406 61.9239L32.9696 68.995L36.5051 72.5305L43.5762 65.4594L40.0406 61.9239ZM40.0406 64.2809L35.3266 68.995L36.5051 70.1735L41.2191 65.4594L40.0406 64.2809ZM31.791 70.1735L30.9495 73.5401C30.797 74.1507 31.3494 74.7031 31.9599 74.5506L35.3266 73.709L31.791 70.1735Z" fill="black"/>
</g>
<path id="Label" d="M68.1748 61.1641V74.1865H67.0762V61.1641H68.1748ZM65.4355 61.5156V73.5273H64.3369V67.4482H61.583C60.7847 68.9644 59.5322 70.3047 57.7158 71.374L57.042 70.5391C59.8765 68.8618 61.2974 66.5107 61.5098 63.7861H57.5986V62.834H62.6523C62.645 64.1157 62.4399 65.3535 62.0078 66.5107H64.3369V61.5156H65.4355ZM74.6201 64.665C74.6055 67.0381 76.2314 69.4404 78.1504 70.3047L77.4473 71.2129C75.9678 70.4878 74.686 68.957 74.0635 67.0967C73.4556 69.0669 72.1738 70.7075 70.6504 71.4766L69.918 70.5098C71.8516 69.6162 73.4629 67.1406 73.4775 64.665V62.292H74.6201V64.665ZM80.7285 61.1641V74.2158H79.5713V61.1641H80.7285ZM94.8203 66.6719V67.6094H89.4443V68.8984H93.2969V71.8135H85.5625V73.1318H93.6924V74.04H84.4199V70.9492H92.1689V69.792H84.3906V68.8984H88.3018V67.6094H82.9551V66.6719H94.8203ZM93.2822 61.6035V65.5732H84.4932V61.6035H93.2822ZM85.6357 62.5264V64.6504H92.1396V62.5264H85.6357ZM106.217 62.3799C106.217 64.2109 108.619 65.8076 110.963 66.1299L110.494 67.0674C108.473 66.7305 106.473 65.6099 105.631 64.0059C104.796 65.6172 102.789 66.7305 100.768 67.0674L100.299 66.1299C102.643 65.8076 105.03 64.2402 105.03 62.3799V61.6328H106.217V62.3799ZM111.549 68.5029V69.4697H106.158V74.1865H105.03V69.4697H99.6836V68.5029H111.549ZM123.443 61.1641V68.9277H122.286V65.5146H119.664V64.5625H122.286V61.1641H123.443ZM119.122 69.3379C121.832 69.3379 123.487 70.2168 123.487 71.7549C123.487 73.293 121.832 74.1719 119.122 74.1865C116.412 74.1719 114.757 73.293 114.757 71.7549C114.757 70.2168 116.412 69.3379 119.122 69.3379ZM119.122 70.2314C117.13 70.2314 115.885 70.8027 115.899 71.7549C115.885 72.6924 117.13 73.2637 119.122 73.2637C121.114 73.2637 122.345 72.6924 122.345 71.7549C122.345 70.8027 121.114 70.2314 119.122 70.2314ZM117.174 63.5518C117.174 65.251 118.478 66.8623 120.382 67.5215L119.781 68.4443C118.316 67.917 117.181 66.8257 116.632 65.4707C116.061 67.0015 114.852 68.2246 113.307 68.8105L112.706 67.8877C114.64 67.1846 116.017 65.4268 116.017 63.5664V63.083H113.072V62.1162H120.089V63.083H117.174V63.5518Z" fill="black"/>
</g>
</g>
</g>
<line id="Line 46" x1="14" y1="93.5" x2="360" y2="93.5" stroke="#E9E9E9"/>
<g id="Post Action Sheet Row / &#234;&#179;&#181;&#234;&#176;&#156; &#235;&#178;&#148;&#236;&#156;&#132; &#236;&#136;&#152;&#236;&#160;&#149;">
<g id="Frame 1430106607_2">
<g id="Frame 1430106608_2">
<g id="Lucide Icons / lock">
<path id="Vector" d="M34.9167 119.083V115.416C34.9167 114.201 35.3996 113.035 36.2591 112.175C37.1186 111.316 38.2844 110.833 39.5 110.833C40.7156 110.833 41.8814 111.316 42.7409 112.175C43.6004 113.035 44.0833 114.201 44.0833 115.416V119.083M33.0833 119.083H45.9167C46.9292 119.083 47.75 119.904 47.75 120.916V127.333C47.75 128.346 46.9292 129.166 45.9167 129.166H33.0833C32.0708 129.166 31.25 128.346 31.25 127.333V120.916C31.25 119.904 32.0708 119.083 33.0833 119.083Z" stroke="#1A1A1A" stroke-width="1.33" stroke-linecap="round" stroke-linejoin="round"/>
</g>
<path id="Label_2" d="M64.916 121.396C67.7139 121.396 69.4863 122.275 69.4863 123.784C69.4863 125.278 67.7139 126.157 64.916 126.157C62.1328 126.157 60.3604 125.278 60.3604 123.784C60.3604 122.275 62.1328 121.396 64.916 121.396ZM64.916 122.275C62.8359 122.29 61.4883 122.861 61.5029 123.784C61.4883 124.692 62.8359 125.249 64.916 125.249C66.9961 125.249 68.3291 124.692 68.3438 123.784C68.3291 122.861 66.9961 122.29 64.916 122.275ZM69.3838 113.838V114.937C69.3838 115.991 69.3838 117.046 69.0176 118.394L67.8896 118.262C68.2412 116.914 68.2412 115.962 68.2412 114.937V114.775H60.4482V113.838H69.3838ZM70.8926 119.243V120.181H59.042V119.243H63.9492V116.724H65.0771V119.243H70.8926ZM83.1094 113.164V126.187H81.9814V119.375H80.1797V125.542H79.0811V113.516H80.1797V118.423H81.9814V113.164H83.1094ZM77.6016 114.863C77.5869 118.174 76.4297 121.309 72.6797 123.389L72.0059 122.583C75.0308 120.898 76.2832 118.511 76.4736 115.815H72.5039V114.863H77.6016ZM90.5215 113.911V115.991H94.1543V113.911H95.2822V116.475H98.3584V113.164H99.5156V120.723H98.3584V117.441H95.2822V119.99H89.3789V113.911H90.5215ZM90.5215 119.053H94.1543V116.914H90.5215V119.053ZM99.5156 121.367V126.011H91.0049V121.367H99.5156ZM92.1475 122.29V125.073H98.3877V122.29H92.1475ZM105.976 113.809C107.924 113.794 109.315 114.863 109.315 116.46C109.315 118.042 107.924 119.141 105.976 119.126C104.027 119.141 102.636 118.042 102.636 116.46C102.636 114.863 104.027 113.794 105.976 113.809ZM105.976 114.746C104.672 114.731 103.749 115.449 103.764 116.46C103.749 117.485 104.672 118.188 105.976 118.174C107.294 118.188 108.217 117.485 108.217 116.46C108.217 115.449 107.294 114.731 105.976 114.746ZM112.421 113.179V126.201H111.293V113.179H112.421ZM101.654 120.239C104.101 120.239 107.44 120.195 110.341 119.771L110.414 120.635C109.169 120.862 107.873 121.001 106.62 121.074V125.791H105.478V121.147C104.152 121.206 102.899 121.213 101.815 121.221L101.654 120.239ZM124.945 114.38C124.945 116.211 127.348 117.808 129.691 118.13L129.223 119.067C127.201 118.73 125.202 117.61 124.359 116.006C123.524 117.617 121.518 118.73 119.496 119.067L119.027 118.13C121.371 117.808 123.759 116.24 123.759 114.38V113.633H124.945V114.38ZM130.277 120.503V121.47H124.887V126.187H123.759V121.47H118.412V120.503H130.277ZM142.172 113.164V120.928H141.015V117.515H138.393V116.562H141.015V113.164H142.172ZM137.851 121.338C140.561 121.338 142.216 122.217 142.216 123.755C142.216 125.293 140.561 126.172 137.851 126.187C135.141 126.172 133.485 125.293 133.485 123.755C133.485 122.217 135.141 121.338 137.851 121.338ZM137.851 122.231C135.858 122.231 134.613 122.803 134.628 123.755C134.613 124.692 135.858 125.264 137.851 125.264C139.843 125.264 141.073 124.692 141.073 123.755C141.073 122.803 139.843 122.231 137.851 122.231ZM135.902 115.552C135.902 117.251 137.206 118.862 139.11 119.521L138.51 120.444C137.045 119.917 135.91 118.826 135.36 117.471C134.789 119.001 133.581 120.225 132.035 120.811L131.435 119.888C133.368 119.185 134.745 117.427 134.745 115.566V115.083H131.801V114.116H138.817V115.083H135.902V115.552Z" fill="black"/>
</g>
</g>
</g>
<line id="Line 48" x1="14" y1="145.5" x2="360" y2="145.5" stroke="#E9E9E9"/>
<g id="Post Action Sheet Row / &#234;&#178;&#140;&#236;&#139;&#156;&#235;&#172;&#188; &#236;&#130;&#173;&#236;&#160;&#156;">
<g id="Frame 1430106607_3">
<g id="Frame 1430106608_3">
<g id="Icons_2">
<path id="Union" d="M39.334 162.667C39.7941 162.667 40.1668 163.04 40.167 163.5C40.167 163.96 39.7942 164.334 39.334 164.334H44.334L44.4189 164.338C44.8393 164.38 45.167 164.735 45.167 165.167C45.167 165.627 44.7942 166 44.334 166H44.2412L43.5879 177.76C43.5387 178.643 42.8083 179.334 41.9238 179.334H35.0771C34.1928 179.334 33.4623 178.643 33.4131 177.76L32.7598 166H32.667C32.2069 166 31.834 165.627 31.834 165.167C31.834 164.707 32.2069 164.334 32.667 164.334H37.667C37.2069 164.334 36.834 163.96 36.834 163.5C36.8342 163.04 37.207 162.667 37.667 162.667H39.334ZM35.0771 177.667H41.9238L42.5723 166H34.4287L35.0771 177.667ZM36.834 168.5C37.2942 168.5 37.667 168.874 37.667 169.334V174.334C37.6668 174.794 37.2941 175.167 36.834 175.167C36.3739 175.167 36.0012 174.794 36.001 174.334V169.334C36.001 168.874 36.3737 168.5 36.834 168.5ZM40.167 168.5C40.6272 168.5 41.001 168.874 41.001 169.334V174.334C41.0008 174.794 40.6271 175.167 40.167 175.167C39.707 175.167 39.3342 174.794 39.334 174.334V169.334C39.334 168.874 39.7069 168.5 40.167 168.5Z" fill="black"/>
</g>
<path id="Label_3" d="M68.1748 165.164V178.187H67.0762V165.164H68.1748ZM65.4355 165.516V177.527H64.3369V171.448H61.583C60.7847 172.964 59.5322 174.305 57.7158 175.374L57.042 174.539C59.8765 172.862 61.2974 170.511 61.5098 167.786H57.5986V166.834H62.6523C62.645 168.116 62.4399 169.354 62.0078 170.511H64.3369V165.516H65.4355ZM74.6201 168.665C74.6055 171.038 76.2314 173.44 78.1504 174.305L77.4473 175.213C75.9678 174.488 74.686 172.957 74.0635 171.097C73.4556 173.067 72.1738 174.708 70.6504 175.477L69.918 174.51C71.8516 173.616 73.4629 171.141 73.4775 168.665V166.292H74.6201V168.665ZM80.7285 165.164V178.216H79.5713V165.164H80.7285ZM94.8203 170.672V171.609H89.4443V172.898H93.2969V175.813H85.5625V177.132H93.6924V178.04H84.4199V174.949H92.1689V173.792H84.3906V172.898H88.3018V171.609H82.9551V170.672H94.8203ZM93.2822 165.604V169.573H84.4932V165.604H93.2822ZM85.6357 166.526V168.65H92.1396V166.526H85.6357ZM104.063 167.259C104.049 169.031 105.396 170.657 107.315 171.316L106.715 172.225C105.243 171.697 104.093 170.591 103.521 169.207C102.972 170.738 101.8 171.917 100.255 172.488L99.6543 171.565C101.617 170.862 102.921 169.163 102.936 167.186V165.838H104.063V167.259ZM109.864 165.164V168.621H111.827V169.603H109.864V173.06H108.722V165.164H109.864ZM109.864 173.704V178.187H108.722V174.642H101.339V173.704H109.864ZM123.78 165.164V178.187H122.682V165.164H123.78ZM121.144 165.486V177.513H120.06V170.804H117.862V169.866H120.06V165.486H121.144ZM116.471 168.885C116.471 171.141 117.481 173.382 119.283 174.422L118.58 175.271C117.298 174.502 116.39 173.096 115.943 171.434C115.467 173.228 114.522 174.759 113.219 175.579L112.486 174.715C114.303 173.631 115.357 171.258 115.357 168.885V167.654H112.853V166.702H118.858V167.654H116.471V168.885Z" fill="black"/>
</g>
</g>
</g>
<line id="Line 49" x1="14" y1="197.5" x2="360" y2="197.5" stroke="#E9E9E9"/>
<g id="Post Action Sheet Row / &#236;&#157;&#180; &#234;&#178;&#140;&#236;&#139;&#156;&#235;&#172;&#188;&#236;&#151;&#144; &#235;&#140;&#128;&#237;&#149;&#156; &#236;&#149;&#140;&#235;&#166;&#188; &#235;&#176;&#155;&#234;&#184;&#176;">
<g id="Frame 1430106607_4">
<g id="Frame 1430106608_4">
<g id="Icons_3">
<g id="Union_2">
<path fill-rule="evenodd" clip-rule="evenodd" d="M39.3337 215.524C39.3339 215.516 39.334 215.508 39.334 215.5C39.334 215.04 38.9609 214.667 38.5007 214.667C38.0404 214.667 37.6673 215.04 37.6673 215.5C37.6673 215.508 37.6674 215.516 37.6676 215.524C35.2674 215.757 33.3441 217.692 33.169 220.144L32.6673 227.167C32.2071 227.167 31.834 227.54 31.834 228C31.834 228.461 32.2071 228.834 32.6673 228.834H44.334C44.7942 228.834 45.1673 228.461 45.1673 228C45.1673 227.54 44.7942 227.167 44.334 227.167L43.8323 220.144C43.6572 217.692 41.7339 215.757 39.3337 215.524ZM42.6631 227.167L42.1699 220.263C42.0453 218.518 40.5939 217.167 38.8451 217.167H38.1562C36.4075 217.167 34.956 218.518 34.8314 220.263L34.3382 227.167H42.6631Z" fill="black"/>
<path d="M40.1673 229.667C40.1673 230.587 39.4211 231.334 38.5007 231.334C37.5802 231.334 36.834 230.587 36.834 229.667H40.1673Z" fill="black"/>
</g>
</g>
<path id="Label_4" d="M67.7646 217.164V230.216H66.6074V217.164H67.7646ZM60.8359 218.175C62.7695 218.189 64.1611 219.947 64.1611 222.716C64.1611 225.484 62.7695 227.242 60.8359 227.242C58.8877 227.242 57.5107 225.484 57.5107 222.716C57.5107 219.947 58.8877 218.189 60.8359 218.175ZM60.8359 219.2C59.5322 219.215 58.624 220.592 58.624 222.716C58.624 224.84 59.5322 226.217 60.8359 226.217C62.1396 226.217 63.0479 224.84 63.0479 222.716C63.0479 220.592 62.1396 219.215 60.8359 219.2ZM84.9033 217.164V230.187H83.8047V217.164H84.9033ZM82.1641 217.516V229.527H81.0654V223.448H78.3115C77.5132 224.964 76.2607 226.305 74.4443 227.374L73.7705 226.539C76.605 224.862 78.0259 222.511 78.2383 219.786H74.3271V218.834H79.3809C79.3735 220.116 79.1685 221.354 78.7363 222.511H81.0654V217.516H82.1641ZM91.3486 220.665C91.334 223.038 92.96 225.44 94.8789 226.305L94.1758 227.213C92.6963 226.488 91.4146 224.957 90.792 223.097C90.1841 225.067 88.9023 226.708 87.3789 227.477L86.6465 226.51C88.5801 225.616 90.1914 223.141 90.2061 220.665V218.292H91.3486V220.665ZM97.457 217.164V230.216H96.2998V217.164H97.457ZM111.549 222.672V223.609H106.173V224.898H110.025V227.813H102.291V229.132H110.421V230.04H101.148V226.949H108.897V225.792H101.119V224.898H105.03V223.609H99.6836V222.672H111.549ZM110.011 217.604V221.573H101.222V217.604H110.011ZM102.364 218.526V220.65H108.868V218.526H102.364ZM123.81 217.164V230.187H122.696V217.164H123.81ZM121.188 217.442V229.527H120.089V223.199H118.419C118.294 225.733 117.218 227.315 115.606 227.315C113.907 227.315 112.809 225.558 112.809 222.789C112.809 220.021 113.907 218.263 115.606 218.263C117.188 218.263 118.258 219.793 118.404 222.247H120.089V217.442H121.188ZM115.606 219.347C114.552 219.347 113.878 220.665 113.893 222.789C113.878 224.898 114.552 226.231 115.606 226.217C116.661 226.231 117.335 224.898 117.335 222.789C117.335 220.665 116.661 219.347 115.606 219.347ZM140.509 217.164V230.187H139.41V223.36H137.491V229.513H136.437V217.457H137.491V222.408H139.41V217.164H140.509ZM134.737 218.761V219.713H131.002V225.982C132.796 225.975 134.042 225.909 135.484 225.616L135.587 226.583C134.02 226.905 132.687 226.964 130.694 226.964H129.859V218.761H134.737ZM152.521 217.179V221.471H154.483V222.438H152.521V226.935H151.378V217.179H152.521ZM150.133 218.775V219.713H142.369V218.775H145.68V217.179H146.822V218.775H150.133ZM146.251 220.431C148.111 220.431 149.371 221.383 149.386 222.862C149.371 224.327 148.111 225.265 146.251 225.265C144.376 225.265 143.102 224.327 143.116 222.862C143.102 221.383 144.376 220.431 146.251 220.431ZM146.251 221.339C145.021 221.339 144.2 221.939 144.215 222.862C144.2 223.785 145.021 224.371 146.251 224.356C147.467 224.371 148.287 223.785 148.302 222.862C148.287 221.939 147.467 221.339 146.251 221.339ZM153.121 228.941V229.908H144.376V226.158H145.504V228.941H153.121ZM169.249 217.164V219.991H171.212V220.958H169.249V223.8H168.106V217.164H169.249ZM169.249 224.415V227.594H162.101V229.088H169.732V230.011H160.973V226.715H168.106V225.338H160.943V224.415H169.249ZM162.701 217.647C164.664 217.662 166.085 218.834 166.085 220.533C166.085 222.247 164.664 223.434 162.701 223.434C160.753 223.434 159.303 222.247 159.317 220.533C159.303 218.834 160.753 217.662 162.701 217.647ZM162.701 218.614C161.397 218.6 160.431 219.405 160.445 220.533C160.431 221.676 161.397 222.496 162.701 222.496C164.005 222.496 164.957 221.676 164.957 220.533C164.957 219.405 164.005 218.6 162.701 218.614ZM182.784 217.179V224.898H181.642V217.179H182.784ZM178.639 217.97V221.5H173.834V223.302C176.163 223.316 177.906 223.243 180.016 222.892L180.147 223.858C177.965 224.195 176.178 224.269 173.775 224.269H172.721V220.592H177.496V218.893H172.691V217.97H178.639ZM182.784 225.602V230.011H174.317V225.602H182.784ZM175.445 226.539V229.073H181.656V226.539H175.445ZM198.941 217.164V220.313H200.904V221.28H198.941V224.781H197.799V217.164H198.941ZM190.445 217.911V219.903H194.239V217.911H195.382V223.961H189.317V217.911H190.445ZM190.445 223.038H194.239V220.826H190.445V223.038ZM199.044 225.514V226.437H191.91V229.073H199.293V230.011H190.768V225.514H199.044ZM212.491 217.164V230.187H211.334V217.164H212.491ZM208.639 218.585C208.624 222.335 206.881 225.646 202.516 227.74L201.886 226.803C205.409 225.133 207.203 222.635 207.467 219.522H202.486V218.585H208.639Z" fill="black"/>
</g>
</g>
</g>
<line id="Line 47" x1="14" y1="249.5" x2="360" y2="249.5" stroke="#E9E9E9"/>
<g id="Post Action Sheet Row / &#236;&#189;&#152;&#237;&#133;&#144;&#236;&#184;&#160; &#234;&#184;&#176;&#235;&#179;&#184; &#236;&#132;&#164;&#236;&#160;&#149;">
<g id="Frame 1430106607_5">
<g id="Frame 1430106608_5">
<g id="Icons_4">
<g id="Union_3">
<path d="M38.4993 267.5C38.0391 267.5 37.666 267.873 37.666 268.333V269.167H30.9993C30.5391 269.167 30.166 269.54 30.166 270C30.166 270.46 30.5391 270.833 30.9993 270.833H37.666V271.667C37.666 272.127 38.0391 272.5 38.4993 272.5C38.9596 272.5 39.3327 272.127 39.3327 271.667V268.333C39.3327 267.873 38.9596 267.5 38.4993 267.5Z" fill="black"/>
<path d="M41.8327 273.333C41.8327 272.873 42.2058 272.5 42.666 272.5C43.1263 272.5 43.4993 272.873 43.4993 273.333V276.667C43.4993 277.127 43.1263 277.5 42.666 277.5C42.2058 277.5 41.8327 277.127 41.8327 276.667V275.833H30.9993C30.5391 275.833 30.166 275.46 30.166 275C30.166 274.54 30.5391 274.167 30.9993 274.167H41.8327V273.333Z" fill="black"/>
<path d="M34.3327 277.5C33.8724 277.5 33.4993 277.873 33.4993 278.333V279.167H30.9993C30.5391 279.167 30.166 279.54 30.166 280C30.166 280.46 30.5391 280.833 30.9993 280.833H33.4993V281.667C33.4993 282.127 33.8724 282.5 34.3327 282.5C34.7929 282.5 35.166 282.127 35.166 281.667V278.333C35.166 277.873 34.7929 277.5 34.3327 277.5Z" fill="black"/>
<path d="M35.9993 280C35.9993 279.54 36.3724 279.167 36.8327 279.167H45.9993C46.4596 279.167 46.8327 279.54 46.8327 280C46.8327 280.46 46.4596 280.833 45.9993 280.833H36.8327C36.3724 280.833 35.9993 280.46 35.9993 280Z" fill="black"/>
<path d="M45.166 274.167C44.7058 274.167 44.3327 274.54 44.3327 275C44.3327 275.46 44.7058 275.833 45.166 275.833H45.9993C46.4596 275.833 46.8327 275.46 46.8327 275C46.8327 274.54 46.4596 274.167 45.9993 274.167H45.166Z" fill="black"/>
<path d="M40.166 270C40.166 269.54 40.5391 269.167 40.9993 269.167H45.9993C46.4596 269.167 46.8327 269.54 46.8327 270C46.8327 270.46 46.4596 270.833 45.9993 270.833H40.9993C40.5391 270.833 40.166 270.46 40.166 270Z" fill="black"/>
</g>
</g>
<path id="Label_5" d="M67.4131 269.809V270.893C67.4131 272.108 67.4131 273.427 67.0615 275.214L65.9189 275.111C66.0801 274.35 66.168 273.668 66.2266 273.046L58.2871 273.427L58.126 272.445L66.2705 272.182C66.2852 271.728 66.2852 271.303 66.2852 270.893V270.746H58.4482V269.809H67.4131ZM68.8926 276.093V277.03H57.042V276.093H61.876V274.174H63.0332V276.093H68.8926ZM67.7207 281.044V281.981H58.5508V278.144H59.708V281.044H67.7207ZM81.0508 269.179V278.935H79.9521V269.179H81.0508ZM78.5166 269.442V278.598H77.4033V273.808H75.6455V272.885H77.4033V269.442H78.5166ZM81.4463 280.941V281.908H72.5547V277.851H73.7266V280.941H81.4463ZM75.5723 270.248V271.2H71.7051V273.002H75.0303V273.91H71.7051V275.814C73.5874 275.807 74.7593 275.756 76.1582 275.463L76.2754 276.4C74.7666 276.708 73.5361 276.767 71.4268 276.767H70.6064V270.248H75.5723ZM94.8789 279.55V280.517H82.9551V279.55H94.8789ZM89.4883 272.211C89.4883 274.364 91.6416 275.99 94.1172 276.43L93.6484 277.367C91.5903 276.95 89.7153 275.822 88.9023 274.115C88.0747 275.822 86.1997 276.95 84.1416 277.367L83.6875 276.43C86.1484 275.99 88.3164 274.364 88.3164 272.211H84.0684V271.273H88.3311V269.486H89.459V271.273H93.7363V272.211H89.4883ZM110.45 269.164V282.187H109.293V269.164H110.45ZM106.598 270.585C106.583 274.335 104.84 277.646 100.475 279.74L99.8447 278.803C103.368 277.133 105.162 274.635 105.426 271.522H100.445V270.585H106.598ZM115.372 269.691V271.347H121.817V269.691H122.96V274.892H119.151V276.283H124.513V277.235H112.647V276.283H118.009V274.892H114.229V269.691H115.372ZM115.372 273.969H121.817V272.255H115.372V273.969ZM123.194 280.941V281.908H114.186V278.275H115.343V280.941H123.194ZM140.172 269.164V275.902H139.015V272.519H136.114V271.566H139.015V269.164H140.172ZM140.172 276.562V279.667H132.892V281.088H140.655V282.011H131.764V278.788H139.029V277.484H131.734V276.562H140.172ZM133.814 270.819C133.8 272.533 135.147 274.086 137.052 274.716L136.437 275.609C134.994 275.097 133.844 274.071 133.272 272.753C132.716 274.24 131.537 275.375 129.991 275.932L129.361 275.009C131.324 274.364 132.672 272.724 132.687 270.819V269.589H133.814V270.819ZM153.136 269.164V276.928H151.979V273.515H149.356V272.562H151.979V269.164H153.136ZM148.814 277.338C151.524 277.338 153.18 278.217 153.18 279.755C153.18 281.293 151.524 282.172 148.814 282.187C146.104 282.172 144.449 281.293 144.449 279.755C144.449 278.217 146.104 277.338 148.814 277.338ZM148.814 278.231C146.822 278.231 145.577 278.803 145.592 279.755C145.577 280.692 146.822 281.264 148.814 281.264C150.807 281.264 152.037 280.692 152.037 279.755C152.037 278.803 150.807 278.231 148.814 278.231ZM146.866 271.552C146.866 273.251 148.17 274.862 150.074 275.521L149.474 276.444C148.009 275.917 146.874 274.826 146.324 273.471C145.753 275.001 144.544 276.225 142.999 276.811L142.398 275.888C144.332 275.185 145.709 273.427 145.709 271.566V271.083H142.765V270.116H149.781V271.083H146.866V271.552Z" fill="black"/>
</g>
</g>
</g>
</g>
<g id="Time Picker Area_2">
<g id="CDS Button / &#234;&#178;&#140;&#236;&#139;&#156;&#235;&#172;&#188; &#234;&#179;&#181;&#236;&#156;&#160;">
<path d="M16 362C16 346.536 28.536 334 44 334H331C346.464 334 359 346.536 359 362C359 377.464 346.464 390 331 390H44C28.536 390 16 377.464 16 362Z" fill="#00CC61"/>
<g id="Lucide Icons / share">
<path id="Vector_2" d="M132.334 362V372.667C132.334 373.374 132.615 374.053 133.115 374.553C133.615 375.053 134.293 375.334 135.001 375.334H151.001C151.708 375.334 152.386 375.053 152.886 374.553C153.386 374.053 153.667 373.374 153.667 372.667V362M137.667 354L143.001 348.667L148.334 354M143.001 348.667V366" stroke="white" stroke-width="1.33" stroke-linecap="round" stroke-linejoin="round"/>
</g>
<path id="Label_6" d="M179.688 354.032V369.908H177.636V354.032H179.688ZM174.198 354.266H176.214V369.476H174.198V361.718H171.912C171.564 362.582 171.018 363.392 170.274 364.148C169.542 364.892 168.516 365.72 167.196 366.632L165.774 365.246C167.022 364.418 167.97 363.674 168.618 363.014C169.278 362.354 169.74 361.664 170.004 360.944C170.28 360.212 170.418 359.318 170.418 358.262V357.344H166.278V355.634H172.488V358.226C172.488 358.838 172.452 359.414 172.38 359.954H174.198V354.266ZM194.909 354.032V369.908H192.749V354.032H194.909ZM187.619 360.602C187.835 360.602 188.021 360.698 188.177 360.89L191.255 364.832L189.599 366.254L186.467 362.024C186.443 361.964 186.389 361.934 186.305 361.934C186.233 361.934 186.179 361.964 186.143 362.024C185.807 362.684 185.381 363.362 184.865 364.058C184.361 364.742 183.707 365.564 182.903 366.524L181.247 365.138C182.195 364.094 182.945 363.158 183.497 362.33C184.049 361.49 184.457 360.65 184.721 359.81C184.985 358.97 185.117 358.04 185.117 357.02V355.076H187.277V357.002C187.277 358.466 187.037 359.816 186.557 361.052L186.683 361.142L187.061 360.818C187.241 360.674 187.427 360.602 187.619 360.602ZM209.5 359.792H198.952V354.356H209.5V359.792ZM207.376 355.976H201.076V358.154H207.376V355.976ZM205.306 362.564V363.734H209.482V367.928H201.076V369.098H209.914V370.7H200.392C199.48 370.7 199.024 370.244 199.024 369.332V366.452H207.43V365.318H198.934V363.734H203.164V362.564H196.81V360.872H211.642V362.564H205.306ZM226.904 356.264H218.12V354.5H229.01V355.508C229.01 356.996 228.836 358.622 228.488 360.386L226.436 360.116C226.7 358.988 226.856 357.704 226.904 356.264ZM231.044 361.304V363.086H216.212V361.304H221.828V358.442H223.97V361.304H231.044ZM229.082 367.514C229.082 368.174 228.866 368.756 228.434 369.26C228.014 369.764 227.396 370.154 226.58 370.43C225.764 370.718 224.78 370.862 223.628 370.862C222.476 370.862 221.492 370.718 220.676 370.43C219.86 370.154 219.236 369.764 218.804 369.26C218.384 368.756 218.174 368.174 218.174 367.514C218.174 366.854 218.384 366.278 218.804 365.786C219.224 365.282 219.842 364.892 220.658 364.616C221.486 364.328 222.476 364.184 223.628 364.184C224.78 364.184 225.764 364.328 226.58 364.616C227.408 364.892 228.032 365.282 228.452 365.786C228.872 366.278 229.082 366.854 229.082 367.514ZM226.868 367.406C226.868 366.95 226.598 366.578 226.058 366.29C225.53 365.99 224.72 365.84 223.628 365.84C222.536 365.84 221.72 365.99 221.18 366.29C220.64 366.578 220.37 366.95 220.37 367.406V367.658C220.37 368.102 220.64 368.468 221.18 368.756C221.732 369.056 222.548 369.206 223.628 369.206C224.708 369.206 225.518 369.056 226.058 368.756C226.598 368.468 226.868 368.102 226.868 367.658V367.406ZM233.665 358.028C233.665 357.284 233.869 356.624 234.277 356.048C234.685 355.472 235.303 355.022 236.131 354.698C236.971 354.362 238.003 354.194 239.227 354.194C240.451 354.194 241.477 354.362 242.305 354.698C243.145 355.022 243.769 355.472 244.177 356.048C244.585 356.624 244.789 357.284 244.789 358.028C244.789 358.772 244.585 359.438 244.177 360.026C243.769 360.602 243.145 361.058 242.305 361.394C241.477 361.73 240.451 361.898 239.227 361.898C238.003 361.898 236.971 361.73 236.131 361.394C235.303 361.058 234.685 360.602 234.277 360.026C233.869 359.438 233.665 358.772 233.665 358.028ZM235.987 358.208C235.987 358.796 236.257 359.27 236.797 359.63C237.337 359.99 238.147 360.17 239.227 360.17C240.307 360.17 241.117 359.99 241.657 359.63C242.209 359.27 242.485 358.796 242.485 358.208V357.848C242.485 357.26 242.209 356.786 241.657 356.426C241.117 356.054 240.307 355.868 239.227 355.868C238.159 355.868 237.349 356.054 236.797 356.426C236.257 356.786 235.987 357.26 235.987 357.848V358.208ZM246.643 364.94H243.079V370.394H240.955V364.94H237.499V370.394H235.375V364.94H231.811V363.158H246.643V364.94Z" fill="white"/>
</g>
</g>
</g>
</g>
</svg>
