<svg width="280" height="222" viewBox="0 0 280 222" fill="none" xmlns="http://www.w3.org/2000/svg">
<g id="Confirm Dialog / Stop Writing / CANDIDATE">
<g id="Title">
<path d="M0 16C0 7.16344 7.16344 0 16 0H264C272.837 0 280 7.16344 280 16V66H0V16Z" fill="white"/>
<g id="Frame 2608565">
<path id="&#236;&#157;&#184;&#236;&#166;&#157; &#234;&#178;&#140;&#236;&#139;&#156;&#234;&#184;&#128; &#236;&#158;&#145;&#236;&#132;&#177;&#236;&#157;&#132; &#234;&#183;&#184;&#235;&#167;&#140;&#237;&#149;&#160;&#234;&#185;&#140;&#236;&#154;&#148;?" d="M37.7637 36.6914V48.1699H35.7949V36.6914H37.7637ZM38.2031 50.666V52.248H27.252V47.0098H29.2207V50.666H38.2031ZM29.0977 37.7285C31.5059 37.7285 33.3691 39.3984 33.3691 41.7012C33.3691 44.0566 31.5059 45.6914 29.0977 45.6914C26.6719 45.6914 24.8086 44.0566 24.8086 41.7012C24.8086 39.3984 26.6719 37.7285 29.0977 37.7285ZM29.0977 39.4336C27.7441 39.4336 26.707 40.3301 26.7246 41.7012C26.707 43.1074 27.7441 43.9863 29.0977 43.9863C30.416 43.9863 31.4531 43.1074 31.4531 41.7012C31.4531 40.3301 30.416 39.4336 29.0977 39.4336ZM54.5684 44.0742V45.6562H40.084V44.0742H54.5684ZM47.3086 46.7109C50.7363 46.7109 52.793 47.7832 52.8105 49.6289C52.793 51.4922 50.7363 52.5469 47.3086 52.5469C43.8457 52.5469 41.7715 51.4922 41.7715 49.6289C41.7715 47.7832 43.8457 46.7109 47.3086 46.7109ZM47.3086 48.2402C44.9883 48.2402 43.7402 48.7148 43.7578 49.6289C43.7402 50.543 44.9883 51.0176 47.3086 51.0176C49.5762 51.0176 50.8418 50.543 50.8594 49.6289C50.8418 48.7148 49.5762 48.2402 47.3086 48.2402ZM53.2676 37.4297V39.0293H48.6797C48.9697 40.3477 50.877 41.5342 53.8828 41.8242L53.1973 43.3711C50.3145 43.0635 48.1699 41.9297 47.3086 40.3125C46.4473 41.9209 44.3379 43.0635 41.4551 43.3711L40.7871 41.8242C43.7314 41.5342 45.6475 40.3477 45.9551 39.0293H41.4023V37.4297H53.2676ZM73.623 36.6738V52.5645H71.7598V36.6738H73.623ZM70.248 37.0605V51.8086H68.4023V44.4961H65.5723C64.6406 46.3242 63.1465 47.9062 60.8965 49.207L59.7891 47.8184C63.085 45.876 64.5879 43.3887 64.8867 40.1895H60.5977V38.6074H66.8203C66.8203 40.1455 66.6357 41.5869 66.2051 42.9316H68.4023V37.0605H70.248ZM81.4805 40.4883C81.4629 43.4062 82.9922 46.3242 85.5762 47.4316L84.416 48.9961C82.5879 48.1523 81.2432 46.4648 80.5137 44.3906C79.7842 46.6318 78.4219 48.46 76.4883 49.3652L75.293 47.7305C77.9473 46.5879 79.4941 43.5469 79.4941 40.4883V37.957H81.4805V40.4883ZM88.6875 36.6738V52.582H86.7188V36.6738H88.6875ZM103.77 37.3418V38.3965C103.77 39.4424 103.77 40.7432 103.453 42.4043H105.545V43.9512H91.0254V42.4043H101.484C101.766 40.9629 101.81 39.8291 101.818 38.8887H92.8184V37.3418H103.77ZM103.752 45.2168V49.5234H94.6641V50.877H104.156V52.4062H92.7129V48.0293H101.801V46.7461H92.6953V45.2168H103.752ZM116.549 39.4336C116.549 41.3848 117.814 43.3184 120.311 44.1445L119.326 45.6562C117.551 45.0674 116.285 43.8721 115.6 42.3867C114.888 44.0127 113.569 45.3047 111.715 45.9375L110.678 44.4258C113.244 43.582 114.58 41.5254 114.58 39.4336V39.2402H111.223V37.6758H119.854V39.2402H116.549V39.4336ZM123.387 36.6738V40.6465H125.602V42.2812H123.387V46.2539H121.436V36.6738H123.387ZM123.387 46.9922V52.5645H121.436V48.5566H112.805V46.9922H123.387ZM132.229 38.959C132.211 41.1211 133.477 43.0898 135.973 43.8809L134.918 45.4102C133.187 44.8037 131.974 43.6523 131.297 42.1406C130.594 43.8721 129.267 45.2344 127.342 45.9023L126.305 44.3203C128.941 43.459 130.26 41.332 130.26 39.0469V37.5352H132.229V38.959ZM139.717 36.6738V46.0254H137.766V41.3496H134.602V39.75H137.766V36.6738H139.717ZM134.338 46.4473C137.713 46.4473 139.77 47.5723 139.77 49.5059C139.77 51.4395 137.713 52.5469 134.338 52.5469C130.98 52.5469 128.924 51.4395 128.941 49.5059C128.924 47.5723 130.98 46.4473 134.338 46.4473ZM134.338 47.959C132.123 47.959 130.875 48.5039 130.875 49.5059C130.875 50.4727 132.123 51.0176 134.338 51.0176C136.553 51.0176 137.818 50.4727 137.818 49.5059C137.818 48.5039 136.553 47.959 134.338 47.959ZM149.191 36.9199C152.812 36.9199 154.904 37.8867 154.922 39.6445C154.904 41.4199 152.812 42.3691 149.191 42.3867C145.57 42.3691 143.461 41.4199 143.461 39.6445C143.461 37.8867 145.57 36.9199 149.191 36.9199ZM149.191 38.3613C146.766 38.3613 145.5 38.8184 145.518 39.6445C145.5 40.5234 146.766 40.9277 149.191 40.9277C151.652 40.9277 152.9 40.5234 152.9 39.6445C152.9 38.8184 151.652 38.3613 149.191 38.3613ZM156.451 43.2305V44.7949H141.967V43.2305H156.451ZM154.641 45.8672V49.752H145.605V50.9297H155.08V52.4238H143.689V48.3633H152.725V47.3086H143.672V45.8672H154.641ZM174.434 38.2207V40.0137C174.434 42.1406 174.434 44.3379 173.854 47.6777L171.867 47.502C172.482 44.373 172.482 42.0703 172.482 40.0137V39.8027H163.324V38.2207H174.434ZM176.279 48.7852V50.3848H161.795V48.7852H176.279ZM185.42 38.0449V45.5508H177.896V38.0449H185.42ZM179.812 39.6094V44.0039H183.504V39.6094H179.812ZM189.885 36.6738V41.332H192.1V42.9668H189.885V48.2754H187.934V36.6738H189.885ZM190.518 50.666V52.248H179.707V47.1504H181.658V50.666H190.518ZM205.441 36.6387V40.2246H207.674V41.8066H205.441V45.3047H203.49V36.6387H205.441ZM205.441 46.0078V49.8398H197.004V50.9648H205.934V52.4238H195.07V48.4863H203.49V47.4316H195.053V46.0078H205.441ZM202.348 37.957V39.4512H192.926V37.957H196.67V36.5508H198.621V37.957H202.348ZM197.637 39.9434C199.992 39.9609 201.504 40.9629 201.521 42.5449C201.504 44.1797 199.992 45.1465 197.637 45.1465C195.281 45.1465 193.734 44.1797 193.734 42.5449C193.734 40.9629 195.281 39.9609 197.637 39.9434ZM197.637 41.3496C196.406 41.3496 195.633 41.7891 195.633 42.5449C195.633 43.3184 196.406 43.7402 197.637 43.7402C198.867 43.7402 199.658 43.3184 199.658 42.5449C199.658 41.7891 198.867 41.3496 197.637 41.3496ZM221.139 36.6738V43.0195H223.336V44.6367H221.139V52.5645H219.17V36.6738H221.139ZM213.229 38.3438C213.211 42.5098 212.631 46.0254 209.766 49.1191L208.236 48.0117C210.478 45.6387 211.207 43.125 211.365 39.9434H208.869V38.3438H213.229ZM217.623 38.3438C217.605 42.6152 217.166 46.6934 214.301 50.1387L212.736 49.0664C215.004 46.3682 215.637 43.3887 215.777 39.9434H213.756V38.3438H217.623ZM238.541 49.0312V50.6309H224.021V49.0312H227.379V45.0059C226.113 44.2852 225.349 43.1514 225.357 41.7363C225.34 39.2051 227.836 37.5352 231.246 37.5352C234.674 37.5352 237.17 39.2051 237.17 41.7363C237.17 43.125 236.432 44.2412 235.201 44.9707V49.0312H238.541ZM231.246 39.082C228.873 39.082 227.256 40.084 227.273 41.7363C227.256 43.3711 228.873 44.3906 231.246 44.3906C233.619 44.3906 235.254 43.3711 235.254 41.7363C235.254 40.084 233.619 39.082 231.246 39.082ZM229.312 49.0312H233.215V45.709C232.608 45.8496 231.949 45.9199 231.246 45.9199C230.561 45.9199 229.91 45.8496 229.312 45.7266V49.0312ZM242.268 47.0977C242.285 44.8652 242.918 44.1797 244.025 43.4941C244.781 43.0195 245.344 42.4219 245.344 41.543C245.344 40.5586 244.588 39.9258 243.621 39.9258C242.742 39.9258 241.898 40.4883 241.846 41.666H239.648C239.701 39.3105 241.477 38.0977 243.639 38.0977C246.012 38.0977 247.646 39.416 247.646 41.5078C247.646 42.9316 246.926 43.8633 245.783 44.5488C244.764 45.1641 244.342 45.7793 244.324 47.0977V47.2559H242.268V47.0977ZM243.357 51.1406C242.602 51.1406 241.986 50.5254 241.986 49.7695C241.986 49.0312 242.602 48.416 243.357 48.416C244.078 48.416 244.711 49.0312 244.711 49.7695C244.711 50.5254 244.078 51.1406 243.357 51.1406Z" fill="black"/>
</g>
</g>
<g id="Contents">
<rect width="280" height="42" transform="translate(0 65)" fill="white"/>
<path id="A dialog is a type of modal window that appears in front of content to provide information." d="M36.0156 69.375V83.2969H34.7812V69.375H36.0156ZM28.625 70.4531C30.6875 70.4688 32.1719 72.3438 32.1719 75.2969C32.1719 78.25 30.6875 80.125 28.625 80.125C26.5469 80.125 25.0781 78.25 25.0781 75.2969C25.0781 72.3438 26.5469 70.4688 28.625 70.4531ZM28.625 71.5469C27.2344 71.5625 26.2656 73.0312 26.2656 75.2969C26.2656 77.5625 27.2344 79.0312 28.625 79.0312C30.0156 79.0312 30.9844 77.5625 30.9844 75.2969C30.9844 73.0312 30.0156 71.5625 28.625 71.5469ZM45.625 70.75V79.7812H39.2031V70.75H45.625ZM40.4062 71.7344V78.7812H44.4219V71.7344H40.4062ZM49.8438 69.375V83.2969H48.6094V69.375H49.8438ZM67.7031 69.375V76.8281H66.4844V69.375H67.7031ZM59.9219 77.5312V79.2188H66.4844V77.5312H67.7031V83.0781H58.7031V77.5312H59.9219ZM59.9219 82.0781H66.4844V80.2031H59.9219V82.0781ZM60.2031 70.0625C62.3125 70.0469 63.8438 71.3438 63.8438 73.25C63.8438 75.1406 62.3125 76.4375 60.2031 76.4375C58.0938 76.4375 56.5625 75.1406 56.5625 73.25C56.5625 71.3438 58.0938 70.0469 60.2031 70.0625ZM60.2031 71.0938C58.7812 71.0781 57.75 71.9844 57.7656 73.25C57.75 74.5156 58.7812 75.4219 60.2031 75.4219C61.6094 75.4219 62.6406 74.5156 62.6406 73.25C62.6406 71.9844 61.6094 71.0781 60.2031 71.0938ZM76.6562 70.2344V74.125H71.875V76.2812C74.4844 76.2812 75.8281 76.2422 77.4688 75.9375L77.5938 76.9531C75.8594 77.2344 74.4531 77.2812 71.6406 77.2812H70.6562V73.1875H75.4375V71.2188H70.625V70.2344H76.6562ZM81.5781 69.3906V77.9219H80.3438V75.3438H77.5781V74.3281H80.3438V72.4531H77.5781V71.4531H80.3438V69.3906H81.5781ZM81.5781 78.6719V83.2969H80.3438V79.6719H72.2188V78.6719H81.5781ZM94.75 69.3906V73.9688H96.8438V75H94.75V79.7969H93.5312V69.3906H94.75ZM92.2031 71.0938V72.0938H83.9219V71.0938H87.4531V69.3906H88.6719V71.0938H92.2031ZM88.0625 72.8594C90.0469 72.8594 91.3906 73.875 91.4062 75.4531C91.3906 77.0156 90.0469 78.0156 88.0625 78.0156C86.0625 78.0156 84.7031 77.0156 84.7188 75.4531C84.7031 73.875 86.0625 72.8594 88.0625 72.8594ZM88.0625 73.8281C86.75 73.8281 85.875 74.4688 85.8906 75.4531C85.875 76.4375 86.75 77.0625 88.0625 77.0469C89.3594 77.0625 90.2344 76.4375 90.25 75.4531C90.2344 74.4688 89.3594 73.8281 88.0625 73.8281ZM95.3906 81.9375V82.9688H86.0625V78.9688H87.2656V81.9375H95.3906ZM113.594 69.375V83.2656H112.391V76.0781H110.391V82.5469H109.234V69.6875H110.391V75.0312H112.391V69.375H113.594ZM103.656 71.0781V78.5781C105.039 78.5625 106.508 78.4688 108.203 78.125L108.359 79.2188C106.422 79.5625 104.828 79.6719 103.297 79.6719H102.438V71.0781H103.656ZM128.219 76.25V77.2656H115.562V76.25H118.703V74.2969C117.594 73.8672 116.969 73.1562 116.969 72.2188C116.969 70.5781 118.844 69.6406 121.891 69.6406C124.906 69.6406 126.797 70.5781 126.797 72.2188C126.797 73.1484 126.18 73.8594 125.078 74.2812V76.25H128.219ZM121.891 78.3281C124.875 78.3281 126.656 79.1875 126.672 80.7812C126.656 82.3594 124.875 83.2344 121.891 83.2344C118.875 83.2344 117.094 82.3594 117.094 80.7812C117.094 79.1875 118.875 78.3281 121.891 78.3281ZM121.891 79.2656C119.656 79.2812 118.328 79.8281 118.344 80.7812C118.328 81.7188 119.656 82.2812 121.891 82.2812C124.094 82.2812 125.438 81.7188 125.438 80.7812C125.438 79.8281 124.094 79.2812 121.891 79.2656ZM121.891 70.6094C119.625 70.6094 118.219 71.2188 118.234 72.2188C118.219 73.2344 119.625 73.8281 121.891 73.8281C124.141 73.8281 125.547 73.2344 125.547 72.2188C125.547 71.2188 124.141 70.6094 121.891 70.6094ZM119.922 76.25H123.859V74.625C123.273 74.7266 122.617 74.7812 121.891 74.7812C121.164 74.7812 120.508 74.7266 119.922 74.625V76.25ZM142.047 76.7031V77.7031H129.391V76.7031H142.047ZM140.641 81.9375V82.9688H131.031V78.9219H132.266V81.9375H140.641ZM135.719 69.875C138.703 69.8594 140.625 70.8906 140.625 72.625C140.625 74.3594 138.703 75.3906 135.719 75.3906C132.703 75.3906 130.797 74.3594 130.797 72.625C130.797 70.8906 132.703 69.8594 135.719 69.875ZM135.719 70.8594C133.484 70.8594 132.047 71.5312 132.062 72.625C132.047 73.7188 133.484 74.3906 135.719 74.3906C137.938 74.3906 139.375 73.7188 139.375 72.625C139.375 71.5312 137.938 70.8594 135.719 70.8594ZM159.953 80.4844V81.5156H147.234V80.4844H152.969V77.2969H154.172V80.4844H159.953ZM158.734 71.5938V72.6094H154.203C154.211 74.7891 156.523 76.3906 159.188 76.8281L158.719 77.7969C156.492 77.3984 154.453 76.2812 153.578 74.5469C152.695 76.2812 150.656 77.3984 148.422 77.7969L147.938 76.8281C150.617 76.3906 152.945 74.7891 152.953 72.6094H148.422V71.5938H152.969V69.6719H154.172V71.5938H158.734ZM172.547 69.375V83.2656H171.312V69.375H172.547ZM168.438 70.8906C168.422 74.8906 166.562 78.4219 161.906 80.6562L161.234 79.6562C164.992 77.875 166.906 75.2109 167.188 71.8906H161.875V70.8906H168.438ZM186.281 69.375V83.2656H185.062V69.375H186.281ZM174.969 79.5625C176.156 79.5547 177.516 79.5469 178.922 79.5V77.9844C177.258 77.8047 176.172 76.8594 176.188 75.4688C176.172 73.9062 177.516 72.8906 179.516 72.8906C181.516 72.8906 182.875 73.9062 182.875 75.4688C182.875 76.8438 181.797 77.7891 180.156 77.9688V79.4531C181.5 79.3984 182.859 79.2969 184.141 79.125L184.234 80.0625C181.141 80.5625 177.734 80.6094 175.156 80.6094L174.969 79.5625ZM183.781 71.0938V72.0938H175.266V71.0938H178.922V69.3906H180.156V71.0938H183.781ZM179.516 73.8438C178.234 73.8438 177.328 74.5 177.328 75.4688C177.328 76.4375 178.234 77.0625 179.516 77.0469C180.812 77.0625 181.703 76.4375 181.703 75.4688C181.703 74.5 180.812 73.8438 179.516 73.8438ZM200.188 69.3906V77.375H198.953V69.3906H200.188ZM188.766 76.0156C189.945 76.0156 191.32 76.0078 192.75 75.9531V74.4688H190.031V70.0781H196.625V71.0938H191.266V73.4844H196.75V74.4688H193.984V75.9062C195.273 75.8516 196.578 75.7422 197.797 75.5781L197.875 76.4688C194.828 76.9844 191.453 77.0312 188.953 77.0312L188.766 76.0156ZM192.25 78V79.4844H198.984V78H200.188V83.0781H191.031V78H192.25ZM192.25 82.0781H198.984V80.4375H192.25V82.0781ZM214 69.375V83.2656H212.781V69.375H214ZM204.656 70.75V78.625C206.773 78.6172 208.969 78.4453 211.297 77.9531L211.469 79C209 79.5156 206.797 79.6875 204.578 79.6875H203.453V70.75H204.656ZM227.125 69.375V74.875H229.453V75.9062H227.125V83.2969H225.906V69.375H227.125ZM223.469 70.7344V71.75H218.203V78.7812C220.719 78.7812 222.5 78.6641 224.562 78.2812L224.719 79.3438C222.547 79.7344 220.719 79.8125 218.078 79.8125H216.984V70.7344H223.469ZM231.672 82.0938C231.125 82.0938 230.656 81.6406 230.672 81.0781C230.656 80.5312 231.125 80.0781 231.672 80.0781C232.219 80.0781 232.672 80.5312 232.672 81.0781C232.672 81.6406 232.219 82.0938 231.672 82.0938Z" fill="#797979"/>
</g>
<g id="Dialog/Button">
<g clip-path="url(#clip0_28512_512)">
<g id="Frame 2608565_2">
<rect width="280" height="116" transform="translate(0 106)" fill="white"/>
<g id="Dialog/Button_2" clip-path="url(#clip1_28512_512)">
<g id="Button/Box">
<rect x="16" y="114" width="248" height="48" rx="24" fill="#00CC61"/>
<g id="Frame 1">
<path id="Button" d="M125 131.266V145.391H123.344V131.266H125ZM122.078 131.609V144.719H120.422V140H118.219V138.578H120.422V136.484H118.469C117.805 138.828 116.328 140.844 113.688 142.406L112.672 141.172C115.602 139.445 116.945 137.234 117.203 134.391H113.422V132.984H118.922C118.922 133.695 118.875 134.391 118.781 135.062H120.422V131.609H122.078ZM139.516 138.203V139.609H126.641V138.203H132.203V136.234H133.922V138.203H139.516ZM133.938 132.031C133.938 133.75 135.828 135.312 138.781 135.688L138.109 137.047C135.789 136.688 133.945 135.641 133.047 134.156C132.141 135.641 130.297 136.688 127.969 137.047L127.344 135.688C130.25 135.312 132.172 133.719 132.172 132.031V131.5H133.938V132.031ZM137.938 140.734V145.391H136.203V142.094H128.062V140.734H137.938ZM151.531 131.266V136.891H153.703V138.328H151.531V145.391H149.812V131.266H151.531ZM148.719 133.438V134.828H140.391V133.438H143.734V131.469H145.469V133.438H148.719ZM144.609 135.75C146.641 135.75 148.156 137.125 148.156 139.078C148.156 141.031 146.641 142.391 144.609 142.391C142.547 142.391 141.031 141.031 141.047 139.078C141.031 137.125 142.547 135.75 144.609 135.75ZM144.609 137.172C143.5 137.172 142.703 137.922 142.703 139.078C142.703 140.234 143.5 140.969 144.609 140.953C145.688 140.969 146.484 140.234 146.5 139.078C146.484 137.922 145.688 137.172 144.609 137.172ZM166.094 131.266V145.391H164.344V131.266H166.094ZM161.875 132.766C161.875 136.969 160.25 140.547 155.297 142.891L154.391 141.5C158.086 139.742 159.805 137.352 160.109 134.141H155.109V132.766H161.875Z" fill="white"/>
</g>
</g>
</g>
<g id="Dialog/Button_3" clip-path="url(#clip2_28512_512)">
<g id="Button/Text">
<path id="text" d="M108.32 181.641V183.234C108.32 185.125 108.32 187.078 107.805 190.047L106.039 189.891C106.586 187.109 106.586 185.062 106.586 183.234V183.047H98.4453V181.641H108.32ZM109.961 191.031V192.453H97.0859V191.031H109.961ZM118.086 181.484V188.156H111.398V181.484H118.086ZM113.102 182.875V186.781H116.383V182.875H113.102ZM122.055 180.266V184.406H124.023V185.859H122.055V190.578H120.32V180.266H122.055ZM122.617 192.703V194.109H113.008V189.578H114.742V192.703H122.617ZM133.602 182.719C133.602 184.453 134.727 186.172 136.945 186.906L136.07 188.25C134.492 187.727 133.367 186.664 132.758 185.344C132.125 186.789 130.953 187.938 129.305 188.5L128.383 187.156C130.664 186.406 131.852 184.578 131.852 182.719V182.547H128.867V181.156H136.539V182.547H133.602V182.719ZM139.68 180.266V183.797H141.648V185.25H139.68V188.781H137.945V180.266H139.68ZM139.68 189.438V194.391H137.945V190.828H130.273V189.438H139.68ZM147.539 182.297C147.523 184.219 148.648 185.969 150.867 186.672L149.93 188.031C148.391 187.492 147.312 186.469 146.711 185.125C146.086 186.664 144.906 187.875 143.195 188.469L142.273 187.062C144.617 186.297 145.789 184.406 145.789 182.375V181.031H147.539V182.297ZM154.195 180.266V188.578H152.461V184.422H149.648V183H152.461V180.266H154.195ZM149.414 188.953C152.414 188.953 154.242 189.953 154.242 191.672C154.242 193.391 152.414 194.375 149.414 194.375C146.43 194.375 144.602 193.391 144.617 191.672C144.602 189.953 146.43 188.953 149.414 188.953ZM149.414 190.297C147.445 190.297 146.336 190.781 146.336 191.672C146.336 192.531 147.445 193.016 149.414 193.016C151.383 193.016 152.508 192.531 152.508 191.672C152.508 190.781 151.383 190.297 149.414 190.297ZM167.258 180.266V185.891H169.43V187.328H167.258V194.391H165.539V180.266H167.258ZM164.445 182.438V183.828H156.117V182.438H159.461V180.469H161.195V182.438H164.445ZM160.336 184.75C162.367 184.75 163.883 186.125 163.883 188.078C163.883 190.031 162.367 191.391 160.336 191.391C158.273 191.391 156.758 190.031 156.773 188.078C156.758 186.125 158.273 184.75 160.336 184.75ZM160.336 186.172C159.227 186.172 158.43 186.922 158.43 188.078C158.43 189.234 159.227 189.969 160.336 189.953C161.414 189.969 162.211 189.234 162.227 188.078C162.211 186.922 161.414 186.172 160.336 186.172ZM181.82 180.266V194.391H180.07V180.266H181.82ZM177.602 181.766C177.602 185.969 175.977 189.547 171.023 191.891L170.117 190.5C173.812 188.742 175.531 186.352 175.836 183.141H170.836V181.766H177.602Z" fill="black"/>
</g>
</g>
</g>
</g>
</g>
</g>
<defs>
<clipPath id="clip0_28512_512">
<path d="M0 106H280V206C280 214.837 272.837 222 264 222H16C7.16344 222 0 214.837 0 206V106Z" fill="white"/>
</clipPath>
<clipPath id="clip1_28512_512">
<rect width="248" height="48" fill="white" transform="translate(16 114)"/>
</clipPath>
<clipPath id="clip2_28512_512">
<rect width="248" height="38" fill="white" transform="translate(16 168)"/>
</clipPath>
</defs>
</svg>
