<svg width="375" height="60" viewBox="0 0 375 60" fill="none" xmlns="http://www.w3.org/2000/svg">
<g id="Template Editor Top Bar Done / CANDIDATE">
<g id="Left Area">
<path id="&#236;&#153;&#132;&#235;&#163;&#140;" d="M334.646 23.1172C336.837 23.1172 338.397 24.3291 338.414 26.1387C338.397 27.6245 337.277 28.7451 335.608 29.0605V30.2725C336.854 30.2061 338.107 30.0898 339.277 29.9238L339.427 31.2686C336.306 31.833 332.819 31.8828 330.279 31.8828L330.08 30.4053C331.159 30.4136 332.421 30.4053 333.749 30.3555V29.0605C332.031 28.7783 330.877 27.6494 330.894 26.1387C330.877 24.3291 332.438 23.1172 334.646 23.1172ZM334.646 24.5283C333.45 24.5283 332.604 25.126 332.62 26.1387C332.604 27.1182 333.45 27.7324 334.646 27.749C335.841 27.7324 336.654 27.1182 336.671 26.1387C336.654 25.126 335.841 24.5283 334.646 24.5283ZM342 22.4863V27.334H344.025V28.8613H342V33.9414H340.157V22.4863H342ZM342.531 35.668V37.1621H332.139V32.9287H333.981V35.668H342.531ZM358.519 34.207V35.7344H344.806V34.207H348.441V31.7334H346.433V26.8359H355.065V24.9932H346.399V23.499H356.892V28.3135H348.275V30.2393H357.24V31.7334H355.049V34.207H358.519ZM350.234 34.207H353.239V31.7334H350.234V34.207Z" fill="white"/>
</g>
</g>
</svg>
