<svg width="36" height="36" viewBox="0 0 36 36" fill="none" xmlns="http://www.w3.org/2000/svg">
<g id="Template Fullscreen Control / CANDIDATE">
<path id="Vector" d="M7 13.875V9.75C7 9.02065 7.28973 8.32118 7.80546 7.80546C8.32118 7.28973 9.02065 7 9.75 7H13.875M29 22.125V26.25C29 26.9793 28.7103 27.6788 28.1945 28.1945C27.6788 28.7103 26.9793 29 26.25 29H22.125M22.125 7H26.25C26.9793 7 27.6788 7.28973 28.1945 7.80546C28.7103 8.32118 29 9.02065 29 9.75V13.875M13.875 29H9.75C9.02065 29 8.32118 28.7103 7.80546 28.1945C7.28973 27.6788 7 26.9793 7 26.25V22.125" stroke="white" stroke-width="1.5" stroke-linecap="round" stroke-linejoin="round"/>
</g>
</svg>
