<svg width="375" height="28" viewBox="0 0 375 28" fill="none" xmlns="http://www.w3.org/2000/svg">
<g id="Completion Date Row / CANDIDATE">
<path id="Subtitle" d="M134.385 19L134.37 18.0332L137.988 14.2246C139.248 12.8916 139.849 12.1738 139.849 11.1924C139.849 10.1084 138.926 9.39062 137.739 9.39062C136.479 9.39062 135.674 10.1963 135.674 11.3828H134.429C134.414 9.50781 135.864 8.24805 137.783 8.24805C139.702 8.24805 141.079 9.53711 141.079 11.1924C141.079 12.3789 140.522 13.3018 138.647 15.2354L136.216 17.7402V17.8281H141.27V19H134.385ZM146.66 19.1465C144.302 19.1465 142.954 17.1689 142.954 13.6973C142.954 10.2549 144.331 8.24805 146.66 8.24805C148.989 8.24805 150.366 10.2549 150.366 13.6973C150.366 17.1689 149.004 19.1465 146.66 19.1465ZM146.66 17.9746C148.184 17.9746 149.077 16.4365 149.077 13.6973C149.077 10.958 148.184 9.39062 146.66 9.39062C145.137 9.39062 144.229 10.958 144.229 13.6973C144.229 16.4365 145.122 17.9746 146.66 17.9746ZM152.124 19L152.109 18.0332L155.728 14.2246C156.987 12.8916 157.588 12.1738 157.588 11.1924C157.588 10.1084 156.665 9.39062 155.479 9.39062C154.219 9.39062 153.413 10.1963 153.413 11.3828H152.168C152.153 9.50781 153.604 8.24805 155.522 8.24805C157.441 8.24805 158.818 9.53711 158.818 11.1924C158.818 12.3789 158.262 13.3018 156.387 15.2354L153.955 17.7402V17.8281H159.009V19H152.124ZM164.385 19.1465C162.466 19.1465 161.016 17.96 160.942 16.334H162.217C162.319 17.2861 163.242 17.9893 164.385 17.9893C165.762 17.9893 166.758 16.9785 166.758 15.6455C166.758 14.2686 165.718 13.2578 164.297 13.2432C163.403 13.2285 162.715 13.5068 162.319 14.1953H161.045L161.792 8.39453H167.534V9.56641H162.891L162.495 12.6719H162.598C163.066 12.3057 163.784 12.0566 164.531 12.0566C166.553 12.0566 168.047 13.5508 168.047 15.6162C168.047 17.667 166.494 19.1465 164.385 19.1465ZM180.205 7.17871V16.8174H179.048V12.3057H175.298V11.3828H179.048V9.81543H175.298V8.89258H179.048V7.17871H180.205ZM180.557 18.9414V19.9082H171.812V15.9971H172.969V18.9414H180.557ZM171.343 8.11621V13.9023C173.137 13.895 174.866 13.7998 176.851 13.4336L176.968 14.3857C174.844 14.7812 173.071 14.8691 171.167 14.8838H170.186V8.11621H171.343ZM190.356 8.39453V19H189.023V9.77148H188.965L186.387 11.4854V10.1523L189.023 8.39453H190.356ZM196.934 8.39453V19H195.601V9.77148H195.542L192.964 11.4854V10.1523L195.601 8.39453H196.934ZM210.029 7.17871V14.8545H208.872V14.1367H206.235V13.375H208.872V7.17871H210.029ZM199.248 12.0859C201.768 12.1006 204.99 12.0713 207.803 11.7637L207.876 12.5107C206.602 12.6938 205.276 12.8037 203.979 12.8623V14.8984H202.852V12.9062C201.621 12.9502 200.442 12.9575 199.38 12.9502L199.248 12.0859ZM210.029 15.3232V18.0186H202.427V19.1904H210.454V20.04H201.299V17.2129H208.887V16.1582H201.24V15.3232H210.029ZM203.496 7.42773C205.43 7.42773 206.719 8.18945 206.733 9.39062C206.719 10.6064 205.43 11.3389 203.496 11.3389C201.533 11.3389 200.259 10.6064 200.259 9.39062C200.259 8.18945 201.533 7.42773 203.496 7.42773ZM203.496 8.2334C202.178 8.2334 201.328 8.6875 201.343 9.39062C201.328 10.0791 202.178 10.5479 203.496 10.5479C204.8 10.5479 205.649 10.0791 205.649 9.39062C205.649 8.6875 204.8 8.2334 203.496 8.2334ZM220.239 8.39453V19H218.906V9.77148H218.848L216.27 11.4854V10.1523L218.906 8.39453H220.239ZM226.816 8.39453V19H225.483V9.77148H225.425L222.847 11.4854V10.1523L225.483 8.39453H226.816ZM232.866 7.64746C234.814 7.66211 236.235 8.83398 236.235 10.5332C236.235 12.2324 234.814 13.4043 232.866 13.4043C230.889 13.4043 229.482 12.2324 229.482 10.5332C229.482 8.83398 230.889 7.66211 232.866 7.64746ZM232.866 8.61426C231.562 8.61426 230.596 9.40527 230.61 10.5332C230.596 11.6758 231.562 12.4668 232.866 12.4668C234.155 12.4668 235.122 11.6758 235.122 10.5332C235.122 9.40527 234.155 8.61426 232.866 8.61426ZM239.927 7.16406V13.8584H238.784V7.16406H239.927ZM239.927 14.4883V17.623H232.617V19.0879H240.396V20.0107H231.489V16.7588H238.784V15.4111H231.46V14.4883H239.927Z" fill="#797979"/>
</g>
</svg>
