<svg width="375" height="60" viewBox="0 0 375 60" fill="none" xmlns="http://www.w3.org/2000/svg">
<g id="Album Picker Top Bar / CANDIDATE">
<g id="Icon/Back">
<path id="Vector" d="M27.9582 30.7917L36.5699 39.4035C36.724 39.5576 36.8048 39.7391 36.8122 39.9481C36.8185 40.1571 36.7341 40.3487 36.5588 40.5229C36.3857 40.6918 36.1994 40.7778 35.9999 40.781C35.8015 40.7831 35.6146 40.697 35.4394 40.5229L25.8127 30.8962C25.6745 30.7569 25.5774 30.6154 25.5214 30.4719C25.4655 30.3283 25.4375 30.171 25.4375 30C25.4375 29.829 25.4655 29.6718 25.5214 29.5282C25.5774 29.3846 25.6745 29.2437 25.8127 29.1055L35.4394 19.4772C35.5872 19.3294 35.7672 19.2503 35.9793 19.2397C36.1926 19.2291 36.3863 19.3083 36.5604 19.4772C36.7346 19.6514 36.8217 19.8393 36.8217 20.0409C36.8217 20.2435 36.7346 20.432 36.5604 20.6061L27.9566 29.2084H46.2916C46.5175 29.2084 46.7059 29.2838 46.8568 29.4348C47.0078 29.5857 47.0833 29.7741 47.0833 30C47.0833 30.2259 47.0078 30.4143 46.8568 30.5653C46.7059 30.7162 46.5175 30.7917 46.2916 30.7917H27.9582Z" fill="white"/>
</g>
<g id="Button/Secondary/Ghost/24/IconRight">
<path id="&#236;&#181;&#156;&#234;&#183;&#188; &#237;&#149;&#173;&#235;&#170;&#169;" d="M157.006 30.5049V32.9287C158.31 32.8623 159.621 32.7461 160.858 32.5635L161.007 33.9248C157.637 34.5391 154.035 34.5723 151.395 34.5723L151.163 33.0781C152.333 33.0698 153.711 33.0615 155.164 33.0117V30.5049H157.006ZM160.244 24.3125V25.8066H157.04C157.123 27.4087 158.393 28.853 160.659 29.4258L159.812 30.8701C158.036 30.3887 156.766 29.3511 156.093 28.0146C155.429 29.4258 154.176 30.5049 152.391 30.9863L151.511 29.5918C153.777 28.9692 155.022 27.4917 155.13 25.8066H151.959V24.3125H155.164V22.6025H157.006V24.3125H160.244ZM163.597 22.4697V37.4941H161.754V22.4697H163.597ZM177.825 23.333V24.5781C177.825 25.8398 177.825 27.2925 177.493 29.1934H179.501V30.7041H165.789V29.1934H175.617C175.957 27.3838 175.982 26.0391 175.982 24.8271H167.482V23.333H177.825ZM178.256 35.668V37.1621H167.565V32.1318H169.391V35.668H178.256ZM196.352 22.4697V26.4209H198.444V27.9648H196.352V32.0488H194.509V22.4697H196.352ZM191.504 32.1816C194.576 32.1816 196.518 33.1611 196.518 34.8213C196.518 36.4648 194.576 37.4609 191.504 37.4609C188.383 37.4609 186.474 36.4648 186.491 34.8213C186.474 33.1611 188.383 32.1816 191.504 32.1816ZM191.504 33.5928C189.446 33.5928 188.3 33.9912 188.317 34.8213C188.3 35.6182 189.446 36.0664 191.504 36.0664C193.53 36.0664 194.675 35.6182 194.675 34.8213C194.675 33.9912 193.53 33.5928 191.504 33.5928ZM193.43 23.9971V25.4414H184.532V23.9971H188.068V22.3701H189.911V23.9971H193.43ZM188.981 26.0391C191.156 26.0391 192.633 27.1182 192.65 28.7285C192.633 30.3389 191.156 31.4014 188.981 31.4014C186.79 31.4014 185.295 30.3389 185.295 28.7285C185.295 27.1182 186.79 26.0391 188.981 26.0391ZM188.981 27.4004C187.835 27.4004 187.088 27.8984 187.088 28.7285C187.088 29.542 187.835 30.0068 188.981 30.0068C190.126 30.0068 190.89 29.542 190.89 28.7285C190.89 27.8984 190.126 27.4004 188.981 27.4004ZM211.144 23.084V28.2969H206.96V29.874H212.887V31.3682H199.208V29.874H205.101V28.2969H200.934V23.084H211.144ZM202.727 24.5283V26.8359H209.318V24.5283H202.727ZM211.21 32.6299V37.4775H209.368V34.0908H200.718V32.6299H211.21Z" fill="white"/>
<g id="Icon/More">
<path id="Vector_2" d="M228.5 27L223.5 32L218.5 27" stroke="white"/>
</g>
</g>
<path id="&#235;&#139;&#164;&#236;&#157;&#140;" d="M341.56 22.9697V28.6641H343.867V30.1748H341.56V37.9941H339.717V22.9697H341.56ZM337.442 24.3975V25.8916H332.263V32.7812C334.595 32.7812 336.438 32.665 338.505 32.2998L338.721 33.8604C336.396 34.2588 334.371 34.3252 331.665 34.3252H330.42V24.3975H337.442ZM351.321 23.2686C354.642 23.2686 356.717 24.3643 356.733 26.1904C356.717 27.9834 354.642 29.0625 351.321 29.0459C348.034 29.0625 345.909 27.9834 345.909 26.1904C345.909 24.3643 348.034 23.2686 351.321 23.2686ZM351.321 24.7129C349.13 24.7129 347.818 25.2275 347.835 26.1904C347.818 27.1035 349.13 27.6016 351.321 27.6182C353.513 27.6016 354.824 27.1035 354.824 26.1904C354.824 25.2275 353.513 24.7129 351.321 24.7129ZM356.518 32.748V37.7949H346.108V32.748H356.518ZM347.935 34.209V36.3008H354.725V34.209H347.935ZM358.178 30.0586V31.5527H344.498V30.0586H358.178Z" fill="#6BFFA2"/>
</g>
</svg>
